<svg version="1.2" xmlns="http://www.w3.org/2000/svg" viewBox="0 0 662 662" width="662" height="662">
	<title>36Z_2105</title>
	<defs>
		<linearGradient id="g1" x2="1" gradientUnits="userSpaceOnUse" gradientTransform="matrix(1286.27,-530.199,888.236,2154.872,-611.167,262.764)">
			<stop offset="0" stop-color="#afb6e5"/>
			<stop offset=".581" stop-color="#e5e9ff"/>
			<stop offset="1" stop-color="#ffffff"/>
		</linearGradient>
		<linearGradient id="g2" x2="1" gradientUnits="userSpaceOnUse" gradientTransform="matrix(415.482,624.762,-346.584,230.487,664.084,-247.935)">
			<stop offset=".005" stop-color="#273b98"/>
			<stop offset=".399" stop-color="#361cac"/>
			<stop offset="1" stop-color="#4e0070"/>
		</linearGradient>
		<linearGradient id="g3" x2="1" gradientUnits="userSpaceOnUse" gradientTransform="matrix(396.584,0,0,374.956,216.411,258.269)">
			<stop offset=".005" stop-color="#273b98"/>
			<stop offset=".399" stop-color="#361cac"/>
			<stop offset="1" stop-color="#4e0070"/>
		</linearGradient>
		<linearGradient id="g4" x2="1" gradientUnits="userSpaceOnUse" gradientTransform="matrix(345.192,691.582,-258.665,129.108,754.788,-255.126)">
			<stop offset="0" stop-color="#b3bae7"/>
			<stop offset=".192" stop-color="#b7bde9"/>
			<stop offset=".283" stop-color="#bac0e9"/>
			<stop offset=".409" stop-color="#afb6e5"/>
			<stop offset=".909" stop-color="#afb6e5"/>
			<stop offset="1" stop-color="#b3bae7"/>
		</linearGradient>
		<linearGradient id="g5" x2="1" gradientUnits="userSpaceOnUse" gradientTransform="matrix(345.058,691.315,-258.264,128.908,754.698,-254.894)">
			<stop offset="0" stop-color="#b4bbe8"/>
			<stop offset=".192" stop-color="#b9beea"/>
			<stop offset=".283" stop-color="#bcc2ea"/>
			<stop offset=".409" stop-color="#b2b8e6"/>
			<stop offset=".434" stop-color="#b2b8e6"/>
			<stop offset=".535" stop-color="#b3b9e6"/>
			<stop offset=".722" stop-color="#afb6e5"/>
			<stop offset=".909" stop-color="#afb6e5"/>
			<stop offset="1" stop-color="#b4bbe8"/>
		</linearGradient>
		<linearGradient id="g6" x2="1" gradientUnits="userSpaceOnUse" gradientTransform="matrix(344.925,691.048,-257.863,128.708,754.609,-254.662)">
			<stop offset="0" stop-color="#b5bce8"/>
			<stop offset=".192" stop-color="#bac0ea"/>
			<stop offset=".283" stop-color="#bdc3eb"/>
			<stop offset=".409" stop-color="#b4bbe7"/>
			<stop offset=".434" stop-color="#b4bbe7"/>
			<stop offset=".535" stop-color="#b7bde7"/>
			<stop offset=".722" stop-color="#afb6e5"/>
			<stop offset=".909" stop-color="#afb6e5"/>
			<stop offset="1" stop-color="#b5bce8"/>
		</linearGradient>
		<linearGradient id="g7" x2="1" gradientUnits="userSpaceOnUse" gradientTransform="matrix(344.791,690.78,-257.462,128.508,754.52,-254.43)">
			<stop offset="0" stop-color="#b7bde9"/>
			<stop offset=".192" stop-color="#bcc1eb"/>
			<stop offset=".283" stop-color="#bfc5ec"/>
			<stop offset=".409" stop-color="#b7bde9"/>
			<stop offset=".434" stop-color="#b7bde9"/>
			<stop offset=".535" stop-color="#bac0e9"/>
			<stop offset=".722" stop-color="#afb6e5"/>
			<stop offset=".909" stop-color="#afb6e5"/>
			<stop offset="1" stop-color="#b7bde9"/>
		</linearGradient>
		<linearGradient id="g8" x2="1" gradientUnits="userSpaceOnUse" gradientTransform="matrix(344.658,690.513,-257.061,128.308,754.43,-254.198)">
			<stop offset="0" stop-color="#b8bfe9"/>
			<stop offset=".192" stop-color="#bdc3ec"/>
			<stop offset=".283" stop-color="#c1c6ec"/>
			<stop offset=".409" stop-color="#b9c0ea"/>
			<stop offset=".434" stop-color="#b9c0ea"/>
			<stop offset=".535" stop-color="#bec4ea"/>
			<stop offset=".722" stop-color="#afb6e5"/>
			<stop offset=".909" stop-color="#afb6e5"/>
			<stop offset="1" stop-color="#b8bfe9"/>
		</linearGradient>
		<linearGradient id="g9" x2="1" gradientUnits="userSpaceOnUse" gradientTransform="matrix(344.525,690.246,-256.661,128.108,754.341,-253.966)">
			<stop offset="0" stop-color="#b9c0ea"/>
			<stop offset=".192" stop-color="#bfc4ed"/>
			<stop offset=".283" stop-color="#c2c8ed"/>
			<stop offset=".409" stop-color="#bcc2eb"/>
			<stop offset=".434" stop-color="#bcc2eb"/>
			<stop offset=".535" stop-color="#c2c7eb"/>
			<stop offset=".722" stop-color="#afb6e5"/>
			<stop offset=".909" stop-color="#afb6e5"/>
			<stop offset="1" stop-color="#b9c0ea"/>
		</linearGradient>
		<linearGradient id="g10" x2="1" gradientUnits="userSpaceOnUse" gradientTransform="matrix(344.391,689.979,-256.261,127.908,754.252,-253.735)">
			<stop offset="0" stop-color="#bac1ea"/>
			<stop offset=".192" stop-color="#c0c6ed"/>
			<stop offset=".283" stop-color="#c4c9ee"/>
			<stop offset=".409" stop-color="#bec4ec"/>
			<stop offset=".434" stop-color="#bec5ec"/>
			<stop offset=".535" stop-color="#c6cbec"/>
			<stop offset=".722" stop-color="#afb6e5"/>
			<stop offset=".909" stop-color="#afb6e5"/>
			<stop offset="1" stop-color="#bac1ea"/>
		</linearGradient>
		<linearGradient id="g11" x2="1" gradientUnits="userSpaceOnUse" gradientTransform="matrix(344.258,689.711,-255.861,127.709,754.164,-253.503)">
			<stop offset="0" stop-color="#bcc2eb"/>
			<stop offset=".192" stop-color="#c2c7ee"/>
			<stop offset=".283" stop-color="#c6cbef"/>
			<stop offset=".409" stop-color="#c1c7ed"/>
			<stop offset=".434" stop-color="#c1c7ee"/>
			<stop offset=".535" stop-color="#caceee"/>
			<stop offset=".722" stop-color="#afb6e5"/>
			<stop offset=".909" stop-color="#afb6e5"/>
			<stop offset="1" stop-color="#bcc2eb"/>
		</linearGradient>
		<linearGradient id="g12" x2="1" gradientUnits="userSpaceOnUse" gradientTransform="matrix(344.124,689.444,-255.461,127.509,754.075,-253.271)">
			<stop offset="0" stop-color="#bdc3ec"/>
			<stop offset=".192" stop-color="#c4c9ef"/>
			<stop offset=".283" stop-color="#c7cdf0"/>
			<stop offset=".409" stop-color="#c3c9ef"/>
			<stop offset=".434" stop-color="#c4c9ef"/>
			<stop offset=".535" stop-color="#cdd2ef"/>
			<stop offset=".722" stop-color="#afb6e5"/>
			<stop offset=".909" stop-color="#afb6e5"/>
			<stop offset="1" stop-color="#bdc3ec"/>
		</linearGradient>
		<linearGradient id="g13" x2="1" gradientUnits="userSpaceOnUse" gradientTransform="matrix(343.991,689.177,-255.062,127.31,753.986,-253.039)">
			<stop offset="0" stop-color="#bec4ec"/>
			<stop offset=".192" stop-color="#c5caef"/>
			<stop offset=".283" stop-color="#c9cef1"/>
			<stop offset=".409" stop-color="#c6cbf0"/>
			<stop offset=".434" stop-color="#c6ccf0"/>
			<stop offset=".535" stop-color="#d1d5f0"/>
			<stop offset=".722" stop-color="#afb6e5"/>
			<stop offset=".909" stop-color="#afb6e5"/>
			<stop offset="1" stop-color="#bec4ec"/>
		</linearGradient>
		<linearGradient id="g14" x2="1" gradientUnits="userSpaceOnUse" gradientTransform="matrix(343.858,688.91,-254.662,127.11,753.897,-252.808)">
			<stop offset="0" stop-color="#bfc5ed"/>
			<stop offset=".192" stop-color="#c7ccf0"/>
			<stop offset=".283" stop-color="#cbd0f2"/>
			<stop offset=".409" stop-color="#c8cef1"/>
			<stop offset=".434" stop-color="#c9cef1"/>
			<stop offset=".535" stop-color="#d5d9f1"/>
			<stop offset=".722" stop-color="#afb6e5"/>
			<stop offset=".909" stop-color="#afb6e5"/>
			<stop offset="1" stop-color="#bfc5ed"/>
		</linearGradient>
		<linearGradient id="g15" x2="1" gradientUnits="userSpaceOnUse" gradientTransform="matrix(343.724,688.643,-254.263,126.911,753.809,-252.576)">
			<stop offset="0" stop-color="#c1c7ed"/>
			<stop offset=".192" stop-color="#c8cdf1"/>
			<stop offset=".283" stop-color="#ccd1f2"/>
			<stop offset=".409" stop-color="#cbd0f2"/>
			<stop offset=".434" stop-color="#cbd1f3"/>
			<stop offset=".535" stop-color="#d9dcf3"/>
			<stop offset=".722" stop-color="#afb6e5"/>
			<stop offset=".909" stop-color="#afb6e5"/>
			<stop offset="1" stop-color="#c1c7ed"/>
		</linearGradient>
		<linearGradient id="g16" x2="1" gradientUnits="userSpaceOnUse" gradientTransform="matrix(343.591,688.375,-253.864,126.712,753.721,-252.345)">
			<stop offset="0" stop-color="#c2c8ee"/>
			<stop offset=".192" stop-color="#cacff2"/>
			<stop offset=".283" stop-color="#ced3f3"/>
			<stop offset=".409" stop-color="#cdd3f3"/>
			<stop offset=".434" stop-color="#ced3f4"/>
			<stop offset=".535" stop-color="#dde0f4"/>
			<stop offset=".722" stop-color="#afb6e5"/>
			<stop offset=".909" stop-color="#afb6e5"/>
			<stop offset="1" stop-color="#c2c8ee"/>
		</linearGradient>
		<linearGradient id="g17" x2="1" gradientUnits="userSpaceOnUse" gradientTransform="matrix(343.458,688.108,-253.465,126.513,753.632,-252.113)">
			<stop offset="0" stop-color="#c3c9ee"/>
			<stop offset=".192" stop-color="#cbd0f2"/>
			<stop offset=".283" stop-color="#d0d4f4"/>
			<stop offset=".409" stop-color="#d0d5f4"/>
			<stop offset=".434" stop-color="#d0d6f5"/>
			<stop offset=".535" stop-color="#e1e3f5"/>
			<stop offset=".722" stop-color="#afb6e5"/>
			<stop offset=".909" stop-color="#afb6e5"/>
			<stop offset="1" stop-color="#c3c9ee"/>
		</linearGradient>
		<linearGradient id="g18" x2="1" gradientUnits="userSpaceOnUse" gradientTransform="matrix(343.324,687.841,-253.066,126.314,753.544,-251.882)">
			<stop offset="0" stop-color="#c4caef"/>
			<stop offset=".192" stop-color="#cdd2f3"/>
			<stop offset=".283" stop-color="#d1d6f5"/>
			<stop offset=".409" stop-color="#d2d7f6"/>
			<stop offset=".434" stop-color="#d3d8f6"/>
			<stop offset=".535" stop-color="#e4e7f6"/>
			<stop offset=".722" stop-color="#afb6e5"/>
			<stop offset=".909" stop-color="#afb6e5"/>
			<stop offset="1" stop-color="#c4caef"/>
		</linearGradient>
		<linearGradient id="g19" x2="1" gradientUnits="userSpaceOnUse" gradientTransform="matrix(343.191,687.574,-252.668,126.115,753.456,-251.651)">
			<stop offset="0" stop-color="#c6cbf0"/>
			<stop offset=".192" stop-color="#cfd3f4"/>
			<stop offset=".283" stop-color="#d3d8f6"/>
			<stop offset=".409" stop-color="#d5daf7"/>
			<stop offset=".434" stop-color="#d6daf8"/>
			<stop offset=".535" stop-color="#e8eaf8"/>
			<stop offset=".722" stop-color="#afb6e5"/>
			<stop offset=".909" stop-color="#afb6e5"/>
			<stop offset="1" stop-color="#c6cbf0"/>
		</linearGradient>
		<linearGradient id="g20" x2="1" gradientUnits="userSpaceOnUse" gradientTransform="matrix(343.057,687.307,-252.27,125.916,753.368,-251.419)">
			<stop offset="0" stop-color="#c7ccf0"/>
			<stop offset=".192" stop-color="#d0d5f4"/>
			<stop offset=".283" stop-color="#d5d9f7"/>
			<stop offset=".409" stop-color="#d7dcf8"/>
			<stop offset=".434" stop-color="#d8ddf9"/>
			<stop offset=".535" stop-color="#eceef9"/>
			<stop offset=".722" stop-color="#afb6e5"/>
			<stop offset=".909" stop-color="#afb6e5"/>
			<stop offset="1" stop-color="#c7ccf0"/>
		</linearGradient>
		<linearGradient id="g21" x2="1" gradientUnits="userSpaceOnUse" gradientTransform="matrix(342.924,687.039,-251.872,125.717,753.28,-251.188)">
			<stop offset="0" stop-color="#c8cdf1"/>
			<stop offset=".192" stop-color="#d2d6f5"/>
			<stop offset=".283" stop-color="#d6dbf8"/>
			<stop offset=".409" stop-color="#dadef9"/>
			<stop offset=".434" stop-color="#dbdffa"/>
			<stop offset=".535" stop-color="#f0f1fa"/>
			<stop offset=".722" stop-color="#afb6e5"/>
			<stop offset=".909" stop-color="#afb6e5"/>
			<stop offset="1" stop-color="#c8cdf1"/>
		</linearGradient>
		<linearGradient id="g22" x2="1" gradientUnits="userSpaceOnUse" gradientTransform="matrix(342.791,686.772,-251.474,125.519,753.192,-250.957)">
			<stop offset="0" stop-color="#c9cff1"/>
			<stop offset=".192" stop-color="#d3d8f6"/>
			<stop offset=".283" stop-color="#d8dcf8"/>
			<stop offset=".409" stop-color="#dce1fa"/>
			<stop offset=".434" stop-color="#dde2fb"/>
			<stop offset=".535" stop-color="#f4f5fb"/>
			<stop offset=".722" stop-color="#afb6e5"/>
			<stop offset=".909" stop-color="#afb6e5"/>
			<stop offset="1" stop-color="#c9cff1"/>
		</linearGradient>
		<linearGradient id="g23" x2="1" gradientUnits="userSpaceOnUse" gradientTransform="matrix(342.657,686.505,-251.076,125.32,753.105,-250.726)">
			<stop offset="0" stop-color="#cbd0f2"/>
			<stop offset=".192" stop-color="#d5d9f7"/>
			<stop offset=".283" stop-color="#dadef9"/>
			<stop offset=".409" stop-color="#dfe3fc"/>
			<stop offset=".434" stop-color="#e0e4fd"/>
			<stop offset=".535" stop-color="#f7f8fd"/>
			<stop offset=".722" stop-color="#afb6e5"/>
			<stop offset=".909" stop-color="#afb6e5"/>
			<stop offset="1" stop-color="#cbd0f2"/>
		</linearGradient>
		<linearGradient id="g24" x2="1" gradientUnits="userSpaceOnUse" gradientTransform="matrix(342.524,686.238,-250.678,125.122,753.017,-250.494)">
			<stop offset="0" stop-color="#ccd1f2"/>
			<stop offset=".192" stop-color="#d6dbf7"/>
			<stop offset=".283" stop-color="#dbdffa"/>
			<stop offset=".409" stop-color="#e1e6fd"/>
			<stop offset=".434" stop-color="#e2e7fe"/>
			<stop offset=".535" stop-color="#fbfcfe"/>
			<stop offset=".722" stop-color="#afb6e5"/>
			<stop offset=".909" stop-color="#afb6e5"/>
			<stop offset="1" stop-color="#ccd1f2"/>
		</linearGradient>
		<linearGradient id="g25" x2="1" gradientUnits="userSpaceOnUse" gradientTransform="matrix(342.39,685.97,-250.281,124.923,752.93,-250.263)">
			<stop offset="0" stop-color="#cdd2f3"/>
			<stop offset=".434" stop-color="#e5e9ff"/>
			<stop offset=".535" stop-color="#ffffff"/>
			<stop offset=".722" stop-color="#afb6e5"/>
			<stop offset=".909" stop-color="#afb6e5"/>
			<stop offset="1" stop-color="#cdd2f3"/>
		</linearGradient>
		<linearGradient id="g26" x2="1" gradientUnits="userSpaceOnUse" gradientTransform="matrix(499.492,139.744,-108.241,386.889,113.192,82.9)">
			<stop offset="0" stop-color="#00c7c5"/>
			<stop offset=".47" stop-color="#5277f7"/>
			<stop offset=".793" stop-color="#836df3"/>
			<stop offset="1" stop-color="#bb6df3"/>
		</linearGradient>
		<linearGradient id="g27" x2="1" gradientUnits="userSpaceOnUse" gradientTransform="matrix(469.471,94.833,-84.25,417.076,104.736,62.932)">
			<stop offset="0" stop-color="#00c7c5"/>
			<stop offset=".47" stop-color="#5277f7"/>
			<stop offset=".793" stop-color="#836df3"/>
			<stop offset="1" stop-color="#bb6df3"/>
		</linearGradient>
		<linearGradient id="g28" x2="1" gradientUnits="userSpaceOnUse" gradientTransform="matrix(-467.452,-322.765,122.223,-177.013,442.324,538.227)">
			<stop offset=".005" stop-color="#273b98"/>
			<stop offset=".399" stop-color="#361cac"/>
			<stop offset="1" stop-color="#4e0070"/>
		</linearGradient>
		<linearGradient id="g29" x2="1" gradientUnits="userSpaceOnUse" gradientTransform="matrix(389.437,123.825,-89.592,281.772,219.352,136.159)">
			<stop offset="0" stop-color="#00c7c5"/>
			<stop offset=".47" stop-color="#5277f7"/>
			<stop offset=".793" stop-color="#836df3"/>
			<stop offset="1" stop-color="#bb6df3"/>
		</linearGradient>
		<linearGradient id="g30" x2="1" gradientUnits="userSpaceOnUse" gradientTransform="matrix(469.574,238.352,-122.14,240.626,214.581,82.454)">
			<stop offset="0" stop-color="#00c7c5"/>
			<stop offset=".47" stop-color="#5277f7"/>
			<stop offset=".793" stop-color="#836df3"/>
			<stop offset="1" stop-color="#bb6df3"/>
		</linearGradient>
		<linearGradient id="g31" x2="1" gradientUnits="userSpaceOnUse" gradientTransform="matrix(467.452,322.765,-122.223,177.013,558.943,143.005)">
			<stop offset=".005" stop-color="#273b98"/>
			<stop offset=".399" stop-color="#361cac"/>
			<stop offset="1" stop-color="#4e0070"/>
		</linearGradient>
		<linearGradient id="g32" x2="1" gradientUnits="userSpaceOnUse" gradientTransform="matrix(73.623,-85.894,207.099,177.513,320.26,247.102)">
			<stop offset="0" stop-color="#ffe585"/>
			<stop offset="1" stop-color="#ff9e6e"/>
		</linearGradient>
		<linearGradient id="g33" x2="1" gradientUnits="userSpaceOnUse" gradientTransform="matrix(-53.724,39.443,-35.172,-47.907,335.773,124.682)">
			<stop offset="0" stop-color="#ffe585"/>
			<stop offset="1" stop-color="#ff9e6e"/>
		</linearGradient>
		<radialGradient id="g34" cx="0" cy="0" r="1" gradientUnits="userSpaceOnUse" gradientTransform="matrix(6.952,0,0,6.952,294.735,120.842)">
			<stop offset="0" stop-color="#f49587"/>
			<stop offset="1" stop-color="#000000"/>
		</radialGradient>
		<radialGradient id="g35" cx="0" cy="0" r="1" gradientUnits="userSpaceOnUse" gradientTransform="matrix(3.381,0,0,3.381,283.324,135.086)">
			<stop offset="0" stop-color="#f49587"/>
			<stop offset="1" stop-color="#000000"/>
		</radialGradient>
		<radialGradient id="g36" cx="0" cy="0" r="1" gradientUnits="userSpaceOnUse" gradientTransform="matrix(17.435,0,0,17.435,309.554,110.413)">
			<stop offset="0" stop-color="#f49587"/>
			<stop offset="1" stop-color="#000000"/>
		</radialGradient>
		<linearGradient id="g37" x2="1" gradientUnits="userSpaceOnUse" gradientTransform="matrix(-158.616,73.207,-460.432,-997.605,380.122,224.666)">
			<stop offset="0" stop-color="#ffe585"/>
			<stop offset="1" stop-color="#ff9e6e"/>
		</linearGradient>
		<radialGradient id="g38" cx="0" cy="0" r="1" gradientUnits="userSpaceOnUse" gradientTransform="matrix(9.434,0,0,9.434,254.873,96.947)">
			<stop offset="0" stop-color="#f49587"/>
			<stop offset="1" stop-color="#000000"/>
		</radialGradient>
		<radialGradient id="g39" cx="0" cy="0" r="1" gradientUnits="userSpaceOnUse" gradientTransform="matrix(53.165,0,0,53.165,273.822,117.073)">
			<stop offset="0" stop-color="#f49587"/>
			<stop offset="1" stop-color="#000000"/>
		</radialGradient>
		<linearGradient id="g40" x2="1" gradientUnits="userSpaceOnUse" gradientTransform="matrix(-16.129,126.008,-20.167,-2.581,2268.53,643.234)">
			<stop offset="0" stop-color="#ffe585"/>
			<stop offset="1" stop-color="#ff9e6e"/>
		</linearGradient>
		<linearGradient id="g41" x2="1" gradientUnits="userSpaceOnUse" gradientTransform="matrix(-16.076,125.594,-77.748,-9.952,496.754,418.325)">
			<stop offset="0" stop-color="#ffe585"/>
			<stop offset="1" stop-color="#ff9e6e"/>
		</linearGradient>
		<radialGradient id="g42" cx="0" cy="0" r="1" gradientUnits="userSpaceOnUse" gradientTransform="matrix(17.229,0,0,17.229,449.02,410.797)">
			<stop offset="0" stop-color="#f49587"/>
			<stop offset="1" stop-color="#000000"/>
		</radialGradient>
		<linearGradient id="g43" x2="1" gradientUnits="userSpaceOnUse" gradientTransform="matrix(603.884,132.525,-133.569,608.643,-119.618,3.303)">
			<stop offset="0" stop-color="#afb6e5"/>
			<stop offset=".581" stop-color="#e5e9ff"/>
			<stop offset="1" stop-color="#ffffff"/>
		</linearGradient>
		<linearGradient id="g44" x2="1" gradientUnits="userSpaceOnUse" gradientTransform="matrix(265.108,398.644,-222.503,147.97,326.411,-50.943)">
			<stop offset=".005" stop-color="#273b98"/>
			<stop offset=".399" stop-color="#361cac"/>
			<stop offset="1" stop-color="#4e0070"/>
		</linearGradient>
		<linearGradient id="g45" x2="1" gradientUnits="userSpaceOnUse" gradientTransform="matrix(250.097,0,0,386.264,29.253,138.787)">
			<stop offset=".005" stop-color="#273b98"/>
			<stop offset=".399" stop-color="#361cac"/>
			<stop offset="1" stop-color="#4e0070"/>
		</linearGradient>
		<linearGradient id="g46" x2="1" gradientUnits="userSpaceOnUse" gradientTransform="matrix(-542.871,162.993,-257.123,-856.383,464.6,443.994)">
			<stop offset="0" stop-color="#00c7c5"/>
			<stop offset=".47" stop-color="#5277f7"/>
			<stop offset=".793" stop-color="#836df3"/>
			<stop offset="1" stop-color="#bb6df3"/>
		</linearGradient>
		<linearGradient id="g47" x2="1" gradientUnits="userSpaceOnUse" gradientTransform="matrix(220.398,441.562,-159.837,79.78,384.884,-53.894)">
			<stop offset="0" stop-color="#b3bae7"/>
			<stop offset=".192" stop-color="#b7bde9"/>
			<stop offset=".283" stop-color="#bac0e9"/>
			<stop offset=".409" stop-color="#afb6e5"/>
			<stop offset=".909" stop-color="#afb6e5"/>
			<stop offset="1" stop-color="#b3bae7"/>
		</linearGradient>
		<linearGradient id="g48" x2="1" gradientUnits="userSpaceOnUse" gradientTransform="matrix(220.316,441.397,-159.591,79.657,384.836,-53.754)">
			<stop offset="0" stop-color="#b4bbe8"/>
			<stop offset=".192" stop-color="#b9beea"/>
			<stop offset=".283" stop-color="#bcc2ea"/>
			<stop offset=".409" stop-color="#b2b8e6"/>
			<stop offset=".434" stop-color="#b2b8e6"/>
			<stop offset=".535" stop-color="#b3b9e6"/>
			<stop offset=".722" stop-color="#afb6e5"/>
			<stop offset=".909" stop-color="#afb6e5"/>
			<stop offset="1" stop-color="#b4bbe8"/>
		</linearGradient>
		<linearGradient id="g49" x2="1" gradientUnits="userSpaceOnUse" gradientTransform="matrix(220.233,441.231,-159.345,79.534,384.788,-53.614)">
			<stop offset="0" stop-color="#b5bce8"/>
			<stop offset=".192" stop-color="#bac0ea"/>
			<stop offset=".283" stop-color="#bdc3eb"/>
			<stop offset=".409" stop-color="#b4bbe7"/>
			<stop offset=".434" stop-color="#b4bbe7"/>
			<stop offset=".535" stop-color="#b7bde7"/>
			<stop offset=".722" stop-color="#afb6e5"/>
			<stop offset=".909" stop-color="#afb6e5"/>
			<stop offset="1" stop-color="#b5bce8"/>
		</linearGradient>
		<linearGradient id="g50" x2="1" gradientUnits="userSpaceOnUse" gradientTransform="matrix(220.151,441.066,-159.099,79.412,384.74,-53.474)">
			<stop offset="0" stop-color="#b7bde9"/>
			<stop offset=".192" stop-color="#bcc1eb"/>
			<stop offset=".283" stop-color="#bfc5ec"/>
			<stop offset=".409" stop-color="#b7bde9"/>
			<stop offset=".434" stop-color="#b7bde9"/>
			<stop offset=".535" stop-color="#bac0e9"/>
			<stop offset=".722" stop-color="#afb6e5"/>
			<stop offset=".909" stop-color="#afb6e5"/>
			<stop offset="1" stop-color="#b7bde9"/>
		</linearGradient>
		<linearGradient id="g51" x2="1" gradientUnits="userSpaceOnUse" gradientTransform="matrix(220.068,440.901,-158.853,79.289,384.693,-53.335)">
			<stop offset="0" stop-color="#b8bfe9"/>
			<stop offset=".192" stop-color="#bdc3ec"/>
			<stop offset=".283" stop-color="#c1c6ec"/>
			<stop offset=".409" stop-color="#b9c0ea"/>
			<stop offset=".434" stop-color="#b9c0ea"/>
			<stop offset=".535" stop-color="#bec4ea"/>
			<stop offset=".722" stop-color="#afb6e5"/>
			<stop offset=".909" stop-color="#afb6e5"/>
			<stop offset="1" stop-color="#b8bfe9"/>
		</linearGradient>
		<linearGradient id="g52" x2="1" gradientUnits="userSpaceOnUse" gradientTransform="matrix(219.986,440.735,-158.607,79.166,384.645,-53.195)">
			<stop offset="0" stop-color="#b9c0ea"/>
			<stop offset=".192" stop-color="#bfc4ed"/>
			<stop offset=".283" stop-color="#c2c8ed"/>
			<stop offset=".409" stop-color="#bcc2eb"/>
			<stop offset=".434" stop-color="#bcc2eb"/>
			<stop offset=".535" stop-color="#c2c7eb"/>
			<stop offset=".722" stop-color="#afb6e5"/>
			<stop offset=".909" stop-color="#afb6e5"/>
			<stop offset="1" stop-color="#b9c0ea"/>
		</linearGradient>
		<linearGradient id="g53" x2="1" gradientUnits="userSpaceOnUse" gradientTransform="matrix(219.903,440.57,-158.362,79.044,384.597,-53.055)">
			<stop offset="0" stop-color="#bac1ea"/>
			<stop offset=".192" stop-color="#c0c6ed"/>
			<stop offset=".283" stop-color="#c4c9ee"/>
			<stop offset=".409" stop-color="#bec4ec"/>
			<stop offset=".434" stop-color="#bec5ec"/>
			<stop offset=".535" stop-color="#c6cbec"/>
			<stop offset=".722" stop-color="#afb6e5"/>
			<stop offset=".909" stop-color="#afb6e5"/>
			<stop offset="1" stop-color="#bac1ea"/>
		</linearGradient>
		<linearGradient id="g54" x2="1" gradientUnits="userSpaceOnUse" gradientTransform="matrix(219.821,440.405,-158.116,78.921,384.55,-52.916)">
			<stop offset="0" stop-color="#bcc2eb"/>
			<stop offset=".192" stop-color="#c2c7ee"/>
			<stop offset=".283" stop-color="#c6cbef"/>
			<stop offset=".409" stop-color="#c1c7ed"/>
			<stop offset=".434" stop-color="#c1c7ee"/>
			<stop offset=".535" stop-color="#caceee"/>
			<stop offset=".722" stop-color="#afb6e5"/>
			<stop offset=".909" stop-color="#afb6e5"/>
			<stop offset="1" stop-color="#bcc2eb"/>
		</linearGradient>
		<linearGradient id="g55" x2="1" gradientUnits="userSpaceOnUse" gradientTransform="matrix(219.738,440.24,-157.871,78.799,384.502,-52.776)">
			<stop offset="0" stop-color="#bdc3ec"/>
			<stop offset=".192" stop-color="#c4c9ef"/>
			<stop offset=".283" stop-color="#c7cdf0"/>
			<stop offset=".409" stop-color="#c3c9ef"/>
			<stop offset=".434" stop-color="#c4c9ef"/>
			<stop offset=".535" stop-color="#cdd2ef"/>
			<stop offset=".722" stop-color="#afb6e5"/>
			<stop offset=".909" stop-color="#afb6e5"/>
			<stop offset="1" stop-color="#bdc3ec"/>
		</linearGradient>
		<linearGradient id="g56" x2="1" gradientUnits="userSpaceOnUse" gradientTransform="matrix(219.656,440.074,-157.625,78.676,384.455,-52.636)">
			<stop offset="0" stop-color="#bec4ec"/>
			<stop offset=".192" stop-color="#c5caef"/>
			<stop offset=".283" stop-color="#c9cef1"/>
			<stop offset=".409" stop-color="#c6cbf0"/>
			<stop offset=".434" stop-color="#c6ccf0"/>
			<stop offset=".535" stop-color="#d1d5f0"/>
			<stop offset=".722" stop-color="#afb6e5"/>
			<stop offset=".909" stop-color="#afb6e5"/>
			<stop offset="1" stop-color="#bec4ec"/>
		</linearGradient>
		<linearGradient id="g57" x2="1" gradientUnits="userSpaceOnUse" gradientTransform="matrix(219.573,439.909,-157.38,78.554,384.408,-52.497)">
			<stop offset="0" stop-color="#bfc5ed"/>
			<stop offset=".192" stop-color="#c7ccf0"/>
			<stop offset=".283" stop-color="#cbd0f2"/>
			<stop offset=".409" stop-color="#c8cef1"/>
			<stop offset=".434" stop-color="#c9cef1"/>
			<stop offset=".535" stop-color="#d5d9f1"/>
			<stop offset=".722" stop-color="#afb6e5"/>
			<stop offset=".909" stop-color="#afb6e5"/>
			<stop offset="1" stop-color="#bfc5ed"/>
		</linearGradient>
		<linearGradient id="g58" x2="1" gradientUnits="userSpaceOnUse" gradientTransform="matrix(219.491,439.744,-157.135,78.431,384.361,-52.357)">
			<stop offset="0" stop-color="#c1c7ed"/>
			<stop offset=".192" stop-color="#c8cdf1"/>
			<stop offset=".283" stop-color="#ccd1f2"/>
			<stop offset=".409" stop-color="#cbd0f2"/>
			<stop offset=".434" stop-color="#cbd1f3"/>
			<stop offset=".535" stop-color="#d9dcf3"/>
			<stop offset=".722" stop-color="#afb6e5"/>
			<stop offset=".909" stop-color="#afb6e5"/>
			<stop offset="1" stop-color="#c1c7ed"/>
		</linearGradient>
		<linearGradient id="g59" x2="1" gradientUnits="userSpaceOnUse" gradientTransform="matrix(219.408,439.578,-156.89,78.309,384.313,-52.218)">
			<stop offset="0" stop-color="#c2c8ee"/>
			<stop offset=".192" stop-color="#cacff2"/>
			<stop offset=".283" stop-color="#ced3f3"/>
			<stop offset=".409" stop-color="#cdd3f3"/>
			<stop offset=".434" stop-color="#ced3f4"/>
			<stop offset=".535" stop-color="#dde0f4"/>
			<stop offset=".722" stop-color="#afb6e5"/>
			<stop offset=".909" stop-color="#afb6e5"/>
			<stop offset="1" stop-color="#c2c8ee"/>
		</linearGradient>
		<linearGradient id="g60" x2="1" gradientUnits="userSpaceOnUse" gradientTransform="matrix(219.326,439.413,-156.645,78.187,384.266,-52.079)">
			<stop offset="0" stop-color="#c3c9ee"/>
			<stop offset=".192" stop-color="#cbd0f2"/>
			<stop offset=".283" stop-color="#d0d4f4"/>
			<stop offset=".409" stop-color="#d0d5f4"/>
			<stop offset=".434" stop-color="#d0d6f5"/>
			<stop offset=".535" stop-color="#e1e3f5"/>
			<stop offset=".722" stop-color="#afb6e5"/>
			<stop offset=".909" stop-color="#afb6e5"/>
			<stop offset="1" stop-color="#c3c9ee"/>
		</linearGradient>
		<linearGradient id="g61" x2="1" gradientUnits="userSpaceOnUse" gradientTransform="matrix(219.243,439.248,-156.401,78.065,384.219,-51.939)">
			<stop offset="0" stop-color="#c4caef"/>
			<stop offset=".192" stop-color="#cdd2f3"/>
			<stop offset=".283" stop-color="#d1d6f5"/>
			<stop offset=".409" stop-color="#d2d7f6"/>
			<stop offset=".434" stop-color="#d3d8f6"/>
			<stop offset=".535" stop-color="#e4e7f6"/>
			<stop offset=".722" stop-color="#afb6e5"/>
			<stop offset=".909" stop-color="#afb6e5"/>
			<stop offset="1" stop-color="#c4caef"/>
		</linearGradient>
		<linearGradient id="g62" x2="1" gradientUnits="userSpaceOnUse" gradientTransform="matrix(219.161,439.083,-156.156,77.943,384.172,-51.8)">
			<stop offset="0" stop-color="#c6cbf0"/>
			<stop offset=".192" stop-color="#cfd3f4"/>
			<stop offset=".283" stop-color="#d3d8f6"/>
			<stop offset=".409" stop-color="#d5daf7"/>
			<stop offset=".434" stop-color="#d6daf8"/>
			<stop offset=".535" stop-color="#e8eaf8"/>
			<stop offset=".722" stop-color="#afb6e5"/>
			<stop offset=".909" stop-color="#afb6e5"/>
			<stop offset="1" stop-color="#c6cbf0"/>
		</linearGradient>
		<linearGradient id="g63" x2="1" gradientUnits="userSpaceOnUse" gradientTransform="matrix(219.078,438.917,-155.912,77.821,384.125,-51.661)">
			<stop offset="0" stop-color="#c7ccf0"/>
			<stop offset=".192" stop-color="#d0d5f4"/>
			<stop offset=".283" stop-color="#d5d9f7"/>
			<stop offset=".409" stop-color="#d7dcf8"/>
			<stop offset=".434" stop-color="#d8ddf9"/>
			<stop offset=".535" stop-color="#eceef9"/>
			<stop offset=".722" stop-color="#afb6e5"/>
			<stop offset=".909" stop-color="#afb6e5"/>
			<stop offset="1" stop-color="#c7ccf0"/>
		</linearGradient>
		<linearGradient id="g64" x2="1" gradientUnits="userSpaceOnUse" gradientTransform="matrix(218.996,438.752,-155.667,77.699,384.079,-51.521)">
			<stop offset="0" stop-color="#c8cdf1"/>
			<stop offset=".192" stop-color="#d2d6f5"/>
			<stop offset=".283" stop-color="#d6dbf8"/>
			<stop offset=".409" stop-color="#dadef9"/>
			<stop offset=".434" stop-color="#dbdffa"/>
			<stop offset=".535" stop-color="#f0f1fa"/>
			<stop offset=".722" stop-color="#afb6e5"/>
			<stop offset=".909" stop-color="#afb6e5"/>
			<stop offset="1" stop-color="#c8cdf1"/>
		</linearGradient>
		<linearGradient id="g65" x2="1" gradientUnits="userSpaceOnUse" gradientTransform="matrix(218.913,438.587,-155.423,77.577,384.032,-51.382)">
			<stop offset="0" stop-color="#c9cff1"/>
			<stop offset=".192" stop-color="#d3d8f6"/>
			<stop offset=".283" stop-color="#d8dcf8"/>
			<stop offset=".409" stop-color="#dce1fa"/>
			<stop offset=".434" stop-color="#dde2fb"/>
			<stop offset=".535" stop-color="#f4f5fb"/>
			<stop offset=".722" stop-color="#afb6e5"/>
			<stop offset=".909" stop-color="#afb6e5"/>
			<stop offset="1" stop-color="#c9cff1"/>
		</linearGradient>
		<linearGradient id="g66" x2="1" gradientUnits="userSpaceOnUse" gradientTransform="matrix(218.831,438.421,-155.179,77.455,383.985,-51.243)">
			<stop offset="0" stop-color="#cbd0f2"/>
			<stop offset=".192" stop-color="#d5d9f7"/>
			<stop offset=".283" stop-color="#dadef9"/>
			<stop offset=".409" stop-color="#dfe3fc"/>
			<stop offset=".434" stop-color="#e0e4fd"/>
			<stop offset=".535" stop-color="#f7f8fd"/>
			<stop offset=".722" stop-color="#afb6e5"/>
			<stop offset=".909" stop-color="#afb6e5"/>
			<stop offset="1" stop-color="#cbd0f2"/>
		</linearGradient>
		<linearGradient id="g67" x2="1" gradientUnits="userSpaceOnUse" gradientTransform="matrix(218.748,438.256,-154.934,77.333,383.939,-51.104)">
			<stop offset="0" stop-color="#ccd1f2"/>
			<stop offset=".192" stop-color="#d6dbf7"/>
			<stop offset=".283" stop-color="#dbdffa"/>
			<stop offset=".409" stop-color="#e1e6fd"/>
			<stop offset=".434" stop-color="#e2e7fe"/>
			<stop offset=".535" stop-color="#fbfcfe"/>
			<stop offset=".722" stop-color="#afb6e5"/>
			<stop offset=".909" stop-color="#afb6e5"/>
			<stop offset="1" stop-color="#ccd1f2"/>
		</linearGradient>
		<linearGradient id="g68" x2="1" gradientUnits="userSpaceOnUse" gradientTransform="matrix(218.666,438.091,-154.69,77.211,383.892,-50.964)">
			<stop offset="0" stop-color="#cdd2f3"/>
			<stop offset=".434" stop-color="#e5e9ff"/>
			<stop offset=".535" stop-color="#ffffff"/>
			<stop offset=".722" stop-color="#afb6e5"/>
			<stop offset=".909" stop-color="#afb6e5"/>
			<stop offset="1" stop-color="#cdd2f3"/>
		</linearGradient>
		<linearGradient id="g69" x2="1" gradientUnits="userSpaceOnUse" gradientTransform="matrix(-81.902,133.18,-156.559,-96.28,246.598,282.802)">
			<stop offset="0" stop-color="#ffe585"/>
			<stop offset="1" stop-color="#ff9e6e"/>
		</linearGradient>
		<linearGradient id="g70" x2="1" gradientUnits="userSpaceOnUse" gradientTransform="matrix(-94.204,153.184,-200.783,-123.476,281.989,306.034)">
			<stop offset="0" stop-color="#ffe585"/>
			<stop offset="1" stop-color="#ff9e6e"/>
		</linearGradient>
		<radialGradient id="g71" cx="0" cy="0" r="1" gradientUnits="userSpaceOnUse" gradientTransform="matrix(1.982,-1.419,1.419,1.982,160.157,300.623)">
			<stop offset="0" stop-color="#f49587"/>
			<stop offset="1" stop-color="#000000"/>
		</radialGradient>
	</defs>
	<style>
		.s0 { opacity: 0;fill: #afb6e5 } 
		.s1 { opacity: 0;fill: #abb2e2 } 
		.s2 { opacity: .1;fill: #a7addf } 
		.s3 { opacity: .1;fill: #a3a9dc } 
		.s4 { opacity: .2;fill: #9fa4d8 } 
		.s5 { opacity: .2;fill: #9ba0d5 } 
		.s6 { opacity: .3;fill: #979bd2 } 
		.s7 { opacity: .3;fill: #9397cf } 
		.s8 { opacity: .4;fill: #8f92cc } 
		.s9 { opacity: .4;fill: #8b8ec9 } 
		.s10 { opacity: .5;fill: #8789c6 } 
		.s11 { opacity: .5;fill: #8385c2 } 
		.s12 { opacity: .6;fill: #7f80bf } 
		.s13 { opacity: .6;fill: #7b7cbc } 
		.s14 { opacity: .7;fill: #7777b9 } 
		.s15 { opacity: .7;fill: #7373b6 } 
		.s16 { opacity: .8;fill: #6f6eb3 } 
		.s17 { opacity: .8;fill: #6b6ab0 } 
		.s18 { opacity: .9;fill: #6765ac } 
		.s19 { opacity: .9;fill: #6361a9 } 
		.s20 { opacity: 1;fill: #5f5ca6 } 
		.s21 { fill: #5b58a3 } 
		.s22 { fill: url(#g1) } 
		.s23 { fill: url(#g2) } 
		.s24 { fill: #afb6e5 } 
		.s25 { fill: url(#g3) } 
		.s26 { fill: #ced3f4 } 
		.s27 { fill: url(#g4) } 
		.s28 { fill: url(#g5) } 
		.s29 { fill: url(#g6) } 
		.s30 { fill: url(#g7) } 
		.s31 { fill: url(#g8) } 
		.s32 { fill: url(#g9) } 
		.s33 { fill: url(#g10) } 
		.s34 { fill: url(#g11) } 
		.s35 { fill: url(#g12) } 
		.s36 { fill: url(#g13) } 
		.s37 { fill: url(#g14) } 
		.s38 { fill: url(#g15) } 
		.s39 { fill: url(#g16) } 
		.s40 { fill: url(#g17) } 
		.s41 { fill: url(#g18) } 
		.s42 { fill: url(#g19) } 
		.s43 { fill: url(#g20) } 
		.s44 { fill: url(#g21) } 
		.s45 { fill: url(#g22) } 
		.s46 { fill: url(#g23) } 
		.s47 { fill: url(#g24) } 
		.s48 { fill: url(#g25) } 
		.s49 { fill: #ffffff } 
		.s50 { opacity: .8;fill: url(#g26) } 
		.s51 { opacity: .8;fill: url(#g27) } 
		.s52 { fill: url(#g28) } 
		.s53 { opacity: .8;fill: url(#g29) } 
		.s54 { opacity: .8;fill: url(#g30) } 
		.s55 { fill: url(#g31) } 
		.s56 { opacity: .6;mix-blend-mode: multiply;fill: #ced3f4 } 
		.s57 { opacity: .8;fill: url(#g32) } 
		.s58 { opacity: .6;fill: #ffe999 } 
		.s59 { mix-blend-mode: multiply;fill: #ced3f4 } 
		.s60 { fill: url(#g33) } 
		.s61 { fill: url(#g34) } 
		.s62 { fill: url(#g35) } 
		.s63 { fill: url(#g36) } 
		.s64 { fill: url(#g37) } 
		.s65 { fill: url(#g38) } 
		.s66 { fill: url(#g39) } 
		.s67 { mix-blend-mode: color-dodge;fill: #ffe585 } 
		.s68 { fill: #e5e9ff } 
		.s69 { fill: #6f70ba } 
		.s70 { fill: #bb6df3 } 
		.s71 { opacity: .5;fill: #bb6df3 } 
		.s72 { fill: #836df3 } 
		.s73 { opacity: .5;fill: #836df3 } 
		.s74 { fill: url(#g40) } 
		.s75 { fill: url(#g41) } 
		.s76 { mix-blend-mode: color-dodge;fill: url(#g42) } 
		.s77 { opacity: .1;fill: #afb6e5 } 
		.s78 { opacity: .2;fill: #afb6e5 } 
		.s79 { opacity: .3;fill: #afb6e5 } 
		.s80 { opacity: .4;fill: #afb6e5 } 
		.s81 { opacity: .5;fill: #afb6e5 } 
		.s82 { opacity: .6;fill: #afb6e5 } 
		.s83 { opacity: .7;fill: #afb6e5 } 
		.s84 { opacity: .8;fill: #afb6e5 } 
		.s85 { opacity: .9;fill: #afb6e5 } 
		.s86 { fill: url(#g43) } 
		.s87 { fill: url(#g44) } 
		.s88 { fill: url(#g45) } 
		.s89 { opacity: .9;fill: url(#g46) } 
		.s90 { fill: url(#g47) } 
		.s91 { fill: url(#g48) } 
		.s92 { fill: url(#g49) } 
		.s93 { fill: url(#g50) } 
		.s94 { fill: url(#g51) } 
		.s95 { fill: url(#g52) } 
		.s96 { fill: url(#g53) } 
		.s97 { fill: url(#g54) } 
		.s98 { fill: url(#g55) } 
		.s99 { fill: url(#g56) } 
		.s100 { fill: url(#g57) } 
		.s101 { fill: url(#g58) } 
		.s102 { fill: url(#g59) } 
		.s103 { fill: url(#g60) } 
		.s104 { fill: url(#g61) } 
		.s105 { fill: url(#g62) } 
		.s106 { fill: url(#g63) } 
		.s107 { fill: url(#g64) } 
		.s108 { fill: url(#g65) } 
		.s109 { fill: url(#g66) } 
		.s110 { fill: url(#g67) } 
		.s111 { fill: url(#g68) } 
		.s112 { opacity: 0;fill: #03336e } 
		.s113 { opacity: .1;fill: #03336e } 
		.s114 { opacity: .2;fill: #03336e } 
		.s115 { mix-blend-mode: multiply;fill: #afb6e5 } 
		.s116 { fill: url(#g69) } 
		.s117 { fill: url(#g70) } 
		.s118 { mix-blend-mode: color-dodge;fill: url(#g71) } 
		.s119 { fill: #a0a8d9 } 
		.s120 { mix-blend-mode: multiply;fill: #a0a8d9 } 
	</style>
	<g id="Layer 1">
		<g id="&lt;Group&gt;" style="opacity: .2">
			<path id="&lt;Path&gt;" class="s0" d="m608.9 661.3c-6 0-11.5-1.3-15.8-3.8l-187.6-109.4-187.5-109.5c-5.8-3.3-9.1-8.6-9.1-14.4 0-6.5 4-12.4 10.9-16.5l3.2-25.6c5.4-3.1 12.3-4.9 19.2-4.9 6 0 11.5 1.4 15.8 3.8l200.3 115 200.2 115c5.8 3.3 9.1 8.6 9.1 14.5 0 6.4-4 12.4-11 16.4l-28.5 14.5c-5.4 3.2-12.2 4.9-19.2 4.9z"/>
			<path id="&lt;Path&gt;" class="s1" d="m223.1 383.8c5.2-3 12.3-4.8 18.9-5 5.9-0.2 11.4 1.1 15.7 3.4 0.2 0 10.3 5.8 10.5 5.8l189 108.6 12.9 7.4 186.6 107.2c5.5 3.1 9.2 8.6 9.3 14.1 0.1 6.3-3.5 12.4-10.5 16.4l-15.1 7.8c-0.1 0.1-13 6.6-13.2 6.6-5.4 3-12.2 4.6-18.9 4.5-5.8 0-11.6-1.6-15.7-3.9l-186.4-108.8-11.2-6.5-175.2-102.2c-5.5-3.2-9.3-8.5-9.3-14.1 0-6.1 3.1-12.3 9.7-16.1l0.3-4.1c-0.3-0.1 2.2-20.9 2.6-21.1z"/>
			<path id="&lt;Path&gt;" class="s2" d="m223.2 385.5c5-2.8 12.3-4.8 18.6-5.2 5.8-0.3 11.3 0.9 15.7 3.1 0.4 0 10.1 5.5 10.4 5.7l188.3 108.1 12.8 7.4 185.8 106.8c5.3 3 9.3 8.5 9.6 13.8 0.3 6.2-3.1 12.2-10.1 16.3l-14.9 7.8c-0.3 0.2-12.7 6.4-13.2 6.5-5.4 2.9-12 4.3-18.6 4.2-5.4 0-11.6-1.9-15.5-4.2l-185.2-108-11.1-6.5-174.2-101.5c-5.2-3-9.5-8.5-9.5-13.8 0-5.8 2.1-12.1 8.4-15.7l0.2-4c-0.6-0.3 1.8-20.4 2.5-20.8z"/>
			<path id="&lt;Path&gt;" class="s3" d="m223.4 387.2c4.6-2.7 12.2-4.8 18.2-5.4 5.7-0.5 11.2 0.7 15.6 2.8 0.6 0 10 5.2 10.4 5.5l187.6 107.8 12.8 7.3 185 106.3c4.9 2.9 9.5 8.6 9.8 13.6 0.5 6.1-2.6 12.1-9.6 16.2l-14.8 7.8c-0.5 0.3-12.5 6.3-13.1 6.4-5.4 2.7-11.9 4.1-18.3 3.8-5.2 0-11.6-2.2-15.4-4.3l-184.1-107.3-11-6.4-173.1-100.9c-4.9-2.9-9.7-8.5-9.7-13.5 0-5.5 1.2-11.9 7.2-15.4v-3.8c-1-0.5 1.4-19.9 2.5-20.5z"/>
			<path id="&lt;Path&gt;" class="s4" d="m223.5 388.9c4.4-2.5 12.3-4.9 17.9-5.5 5.6-0.7 11.1 0.4 15.5 2.4 0.8 0 9.9 5 10.5 5.3l186.8 107.4 12.7 7.3 184.3 105.9c4.6 2.7 9.6 8.6 10.1 13.3 0.6 6-2.2 12-9.2 16.1l-14.7 7.9c-0.6 0.4-12.2 6.1-13.1 6.1-5.3 2.6-11.7 3.9-18 3.5-4.9 0-11.6-2.4-15.1-4.4l-183-106.6-11-6.4-171.9-100.2c-4.7-2.7-10-8.5-10-13.2 0-5.2 0.3-11.8 5.9-15l-0.2-3.7c-1.2-0.8 1.1-19.4 2.5-20.2z"/>
			<path id="&lt;Path&gt;" class="s5" d="m223.6 390.6c4.2-2.4 12.3-4.9 17.6-5.7 5.5-0.8 11 0.2 15.5 2.1 0.9 0 9.7 4.7 10.4 5.1l186 107 12.7 7.3 183.5 105.5c4.4 2.6 9.8 8.6 10.4 13 0.7 5.9-1.7 11.9-8.8 16l-14.5 7.9c-0.8 0.5-12 5.9-13 6-5.3 2.5-11.6 3.6-17.7 3.1-4.6 0-11.7-2.7-15-4.6l-181.8-105.9-11-6.3-170.8-99.5c-4.4-2.6-10.2-8.4-10.2-12.9 0-4.9-0.6-11.6 4.7-14.7l-0.4-3.6c-1.5-0.9 0.6-18.7 2.4-19.8z"/>
			<path id="&lt;Path&gt;" class="s6" d="m223.7 392.3c3.9-2.2 12.4-4.9 17.2-5.9 5.5-1 11 0 15.5 1.8 1.1 0 9.6 4.5 10.5 4.9l185.2 106.6 12.7 7.3 182.7 105.1c4.1 2.4 9.9 8.6 10.6 12.7 0.9 5.9-1.2 11.8-8.3 15.9l-14.4 7.9c-1 0.6-11.7 5.8-12.9 5.9-5.3 2.3-11.5 3.3-17.5 2.8-4.3 0-11.7-3-14.8-4.8l-180.7-105.2-10.8-6.3-169.8-98.8c-4.1-2.4-10.4-8.4-10.4-12.6 0-4.6-1.6-11.4 3.4-14.3l-0.5-3.5c-1.9-1.1 0.2-18.2 2.3-19.5z"/>
			<path id="&lt;Path&gt;" class="s7" d="m223.9 394c3.6-2.1 12.3-5 16.8-6 5.4-1.2 10.9-0.3 15.4 1.3 1.4 0.1 9.6 4.3 10.5 4.9l184.5 106.1 12.6 7.3 182 104.7c3.8 2.2 10.8 8.5 10.8 12.4 2.2 5.5-0.8 11.7-7.9 15.8l-14.2 8c-1.1 0.7-11.5 5.6-12.9 5.7-5.2 2.2-11.4 3-17.1 2.4-4 0-11.8-3.3-14.7-4.9l-179.5-104.5-10.8-6.3-168.7-98.1c-3.8-2.3-10.6-8.4-10.6-12.3 0-4.3-2.5-11.3 2.2-13.9l-0.8-3.4c-2.1-1.3-0.1-17.7 2.4-19.2z"/>
			<path id="&lt;Path&gt;" class="s8" d="m224 395.7c3.4-1.9 12.4-5.1 16.5-6.2 5.2-1.3 10.8-0.5 15.4 1 1.5 0 9.4 4.1 10.4 4.7l183.8 105.7 12.5 7.3 181.3 104.3c3.5 2 11 8.5 11 12.1 2.5 5.4-0.3 11.6-7.4 15.7l-14.1 8c-1.3 0.8-11.2 5.4-12.8 5.5-5.2 2.1-11.3 2.9-16.9 2.1-3.7 0-11.8-3.5-14.5-5.1l-178.4-103.7-10.7-6.3-167.6-97.4c-3.5-2.1-10.8-8.3-10.8-12 0-4-3.4-11.1 0.9-13.6l-0.9-3.3c-2.4-1.4-0.5-17.1 2.3-18.8z"/>
			<path id="&lt;Path&gt;" class="s9" d="m224.1 397.4c3.2-1.8 12.4-5.2 16.2-6.3 5.1-1.6 10.7-0.8 15.3 0.6 1.7 0 9.3 3.8 10.5 4.5l183 105.4 12.5 7.2 180.4 103.9c3.3 1.9 11.4 8.4 11.4 11.8 2.7 5.3 0.1 11.5-7.1 15.6l-13.9 8c-1.5 0.9-10.9 5.3-12.8 5.4-5.2 1.9-11.1 2.6-16.5 1.7-3.5 0-11.9-3.8-14.3-5.2l-177.3-103-10.6-6.2-166.6-96.8c-3.3-2-10.9-8.3-10.9-11.7 0-3.6-4.4-10.9-0.5-13.2l-1-3.2c-2.8-1.6-1-16.6 2.2-18.5z"/>
			<path id="&lt;Path&gt;" class="s10" d="m224.3 399.2c2.8-1.7 12.4-5.4 15.8-6.6 5-1.7 10.6-1 15.2 0.3 1.9 0 9.2 3.5 10.5 4.3l182.2 105 12.5 7.1 179.7 103.6c3 1.7 11.6 8.4 11.6 11.5 3 5.1 0.6 11.4-6.6 15.5l-13.8 8.1c-1.6 0.9-10.7 5.1-12.7 5.2-5.2 1.8-11 2.3-16.3 1.4-3.1 0-11.9-4.1-14.1-5.4l-176.1-102.4-10.6-6.1-165.4-96.2c-3.1-1.7-11.2-8.2-11.2-11.3 0-3.3-5.4-10.7-1.7-12.8l-1.3-3.1c-3-1.8-1.3-16.1 2.3-18.1z"/>
			<path id="&lt;Path&gt;" class="s11" d="m224.4 400.9c2.6-1.5 12.4-5.6 15.5-6.8 4.9-1.8 10.5-1.2 15.1 0 2.1 0 9.1 3.3 10.6 4.1l181.4 104.6 12.4 7.1 179 103.1c2.7 1.6 11.8 8.5 11.8 11.3 3.4 5 1.1 11.2-6.2 15.4l-13.6 8.1c-1.8 1.1-10.4 4.9-12.7 5.1-5.1 1.6-10.8 2-15.9 1-2.9 0-11.9-4.4-14-5.6l-175-101.6-10.5-6.1-164.3-95.5c-2.8-1.6-11.4-8.2-11.4-11 0-3-6.3-10.6-3-12.5l-1.4-2.9c-3.4-2-1.7-15.6 2.2-17.8z"/>
			<path id="&lt;Path&gt;" class="s12" d="m224.5 402.6c2.4-1.4 12.5-5.8 15.2-6.9 4.7-2.1 10.3-1.5 15.1-0.4 2.3 0 8.9 3 10.5 4l180.7 104.1 12.3 7.1 178.2 102.7c2.5 1.5 12.1 8.5 12.1 11 3.7 4.8 1.5 11.1-5.7 15.3l-13.4 8.1c-2.1 1.2-10.3 4.8-12.7 4.9-5.1 1.6-10.7 1.8-15.6 0.7-2.6 0-12-4.6-13.9-5.7l-173.8-100.9-10.5-6.1-163.2-94.8c-2.5-1.4-11.6-8.1-11.6-10.6 0-2.8-7.2-10.5-4.2-12.2l-1.6-2.9c-3.7-2.1-2.1-15 2.1-17.4z"/>
			<path id="&lt;Path&gt;" class="s13" d="m224.7 404.3c2-1.2 12.4-6 14.8-7.1 4.6-2.2 10.2-1.7 15-0.8 2.5 0.1 8.8 2.9 10.5 3.9l180 103.7 12.3 7.1 177.4 102.3c2.2 1.3 12.3 8.4 12.3 10.7 4 4.7 2 11-5.2 15.2l-13.3 8.2c-2.2 1.2-10 4.5-12.7 4.7-5 1.4-10.6 1.6-15.3 0.4-2.3 0-12-5-13.7-5.9l-172.6-100.2-10.4-6.1-162.2-94.1c-2.2-1.3-11.8-8.1-11.8-10.3 0-2.5-8.1-10.3-5.5-11.9l-1.8-2.7c-3.9-2.3-2.4-14.5 2.2-17.1z"/>
			<path id="&lt;Path&gt;" class="s14" d="m224.8 406c1.8-1.1 12.4-6.2 14.5-7.3 4.4-2.3 10.1-1.9 14.9-1.1 2.7 0.1 8.7 2.6 10.6 3.7l179.1 103.3 12.3 7.1 176.7 101.9c1.9 1.1 12.6 8.4 12.6 10.4 4.3 4.6 2.4 10.9-4.9 15.1l-13.1 8.2c-2.4 1.4-9.7 4.4-12.6 4.6-5 1.2-10.5 1.3-15 0-2.1 0-12.1-5.2-13.5-6l-171.6-99.6-10.3-5.9-161.1-93.5c-1.9-1.1-12-8.1-12-10 0-2.2-9.1-10.2-6.7-11.5l-2-2.6c-4.3-2.5-2.9-14 2.1-16.8z"/>
			<path id="&lt;Path&gt;" class="s15" d="m224.9 407.7c1.6-0.9 12.5-6.4 14.2-7.4 4.3-2.5 10-2.2 14.9-1.5 2.8 0 8.5 2.3 10.5 3.5l178.4 103 12.2 7 175.9 101.5c1.7 0.9 12.9 8.4 12.9 10 4.6 4.5 2.9 10.9-4.4 15.1l-13 8.2c-2.6 1.5-9.5 4.3-12.6 4.5-5 1.1-10.3 1-14.7-0.4-1.7 0-12.1-5.5-13.3-6.2l-170.4-98.8-10.3-5.9-160-92.8c-1.6-1-12.2-8-12.2-9.7 0-1.9-10-10-8-11.1l-2.1-2.5c-4.6-2.7-3.3-13.5 2-16.5z"/>
			<path id="&lt;Path&gt;" class="s16" d="m225 409.4c1.3-0.8 12.2-7.6 13.9-7.6 4.6-1.8 9.9-2.4 14.8-1.8 3 0 8.4 2.1 10.6 3.3l177.6 102.6 12.2 7 175.1 101.1c1.4 0.8 13.1 8.3 13.1 9.7 4.9 4.4 3.4 10.8-4 15l-12.8 8.3c-2.7 1.5-9.2 4-12.5 4.2-5 1-10.2 0.8-14.4-0.7-1.5 0-12.2-5.7-13.2-6.3l-169.2-98.1-10.2-5.9-158.9-92.1c-1.4-0.8-12.5-8-12.5-9.4 0-1.5-10.9-9.8-9.3-10.8l-2.2-2.4c-5-2.8-3.7-12.9 1.9-16.1z"/>
			<path id="&lt;Path&gt;" class="s17" d="m225.2 411.1c1-0.6 12.1-7.8 13.5-7.8 4.5-1.9 9.8-2.6 14.7-2.1 3.2 0 8.3 1.8 10.6 3.2l176.9 102.1 12.1 7 174.4 100.7c1.1 0.6 13.3 8.3 13.3 9.4 5.2 4.3 3.8 10.7-3.5 14.9l-12.7 8.3c-2.9 1.6-9 3.9-12.5 4.1-4.9 0.9-10 0.5-14.1-1-1.1 0-12.2-6.1-13-6.5l-168.1-97.4-10.1-5.9-157.8-91.4c-1.1-0.7-12.7-8-12.7-9.1 0-1.2-11.8-9.6-10.5-10.4l-2.5-2.3c-5.2-3-4-12.3 2-15.8z"/>
			<path id="&lt;Path&gt;" class="s18" d="m225.3 412.8c0.8-0.5 12.2-7.9 13.2-7.9 4.4-2.1 9.7-2.9 14.6-2.5 3.5 0 8.2 1.6 10.7 3l176.1 101.7 12 7 173.7 100.2c0.8 0.5 13.5 8.4 13.5 9.2 5.6 4.1 4.3 10.6-3.1 14.8l-12.5 8.3c-3.1 1.8-8.7 3.8-12.4 4-4.9 0.7-9.9 0.3-13.8-1.4-0.9 0-12.3-6.3-12.9-6.7l-166.9-96.6-10.1-5.9-156.7-90.7c-0.8-0.5-12.9-8-12.9-8.8 0-0.9-12.8-9.5-11.8-10.1l-2.6-2.1c-5.5-3.2-4.5-11.8 1.9-15.5z"/>
			<path id="&lt;Path&gt;" class="s19" d="m225.4 414.5c0.6-0.3 12.2-8.1 12.8-8.1 4.4-2.2 9.7-3.1 14.7-2.8 3.6 0 8 1.3 10.6 2.8l175.3 101.3 12 6.9 172.9 99.9c0.6 0.4 13.9 8.4 13.9 8.9 5.8 4 4.7 10.4-2.7 14.7l-12.4 8.4c-3.2 1.8-8.5 3.5-12.4 3.8-4.8 0.5-9.7 0-13.5-1.8-0.6 0-12.2-6.6-12.6-6.8l-165.9-96-9.9-5.7-155.7-90.1c-0.5-0.4-13.1-7.9-13.1-8.5 0-0.6-13.7-9.3-13-9.7l-2.8-2c-5.9-3.4-4.9-11.3 1.8-15.2z"/>
			<path id="&lt;Path&gt;" class="s20" d="m225.6 416.2c0.2-0.2 12.1-8.3 12.4-8.3 4.3-2.2 9.6-3.3 14.6-3.2 3.8 0.1 7.9 1.1 10.6 2.7l174.6 100.9 12 6.9 172.1 99.5c0.3 0.2 14.1 8.3 14.1 8.6 6.1 3.9 5.2 10.3-2.2 14.6l-12.3 8.4c-3.4 1.9-8.2 3.4-12.3 3.6-4.8 0.5-9.7-0.2-13.2-2.1-0.3 0-12.3-6.8-12.5-6.9l-164.7-95.3-9.9-5.7-154.6-89.4c-0.3-0.2-13.3-7.9-13.3-8.2 0-0.3-14.6-9.1-14.3-9.3l-3-2c-6.1-3.5-5.2-10.7 1.9-14.8z"/>
			<path id="&lt;Path&gt;" class="s21" d="m595.3 647.2l-185.7-107.4-185.7-107.4c-6.5-3.7-5.6-10.2 1.8-14.5l12.1-8.4c7.5-4.3 18.7-4.8 25.2-1.1l185.7 107.4 185.7 107.4c6.5 3.7 5.6 10.2-1.8 14.5l-12.1 8.4c-7.5 4.3-18.7 4.8-25.2 1.1z"/>
		</g>
		<g id="&lt;Group&gt;">
			<g id="&lt;Group&gt;">
				<path id="&lt;Path&gt;" class="s22" d="m596.4 646.7l-362.9-209.7c-18.5-10.7-33.6-39.4-33.6-64.2v-316.8c0-24.8 15.1-36.2 33.6-25.4l362.9 209.6c18.5 10.7 33.6 39.5 33.6 64.2v316.9c0 24.7-15.1 36.1-33.6 25.4z"/>
				<path id="&lt;Path&gt;" class="s23" d="m606.2 635.8l-368.8-213.1c-15.4-9.7-24.9-29.3-24.9-49.3v-327.3c0-4.7 5.2-7.6 9.3-5.2q0.7 0.4 1 0.6l369.2 213.3c18.3 10.5 24.9 29.3 24.9 49.3v326.4c0 5.1-5.5 8.3-9.9 5.7q-0.6-0.3-0.8-0.4z"/>
				<path id="&lt;Path&gt;" class="s24" d="m592 254.8l-369.1-213.3q-0.4-0.2-1.1-0.6c-4.1-2.4-9.3 0.5-9.3 5.2v327.3c0 20 9.5 39.6 24.9 49.3l368.8 213.1q0.2 0.1 0.8 0.4c4.4 2.6 9.9-0.6 9.9-5.7v-326.4c0-20-6.6-38.8-24.9-49.3z"/>
				<g id="&lt;Group&gt;">
					<path id="&lt;Path&gt;" class="s25" d="m216.4 373.4c0 19.1 9.1 37.1 23 46l369.5 213.5q0.6 0.3 1.3 0.3c1.4 0 2.8-1 2.8-2.7v-143.1l-396.6-229.1z"/>
					<path id="&lt;Path&gt;" class="s26" d="m590 258.2l-370.2-214q-0.5-0.3-1.1-0.3c-1.1 0-2.3 0.9-2.3 2.2v220.2l396.6 229.1v-191.3c0-14.9-4-35-23-45.9z"/>
				</g>
				<g id="&lt;Group&gt;">
					<path id="&lt;Path&gt;" class="s27" d="m611.8 231.3l-362.8-209.7c-7.4-4.3-14.2-5-19.7-2.9-0.7 0.3-16 9.2-16.7 9.5q0 0 0 0.1c5.7-2.8 13-2.3 20.9 2.3l362.9 209.6c18.5 10.7 33.6 39.5 33.6 64.2v316.9c0 15.4-5.9 25.7-14.8 28.6 0.7 0 1.6-0.3 2.9-1 0.5-0.3 16.6-9.9 17-10.2 6.4-4.5 10.3-13.7 10.3-26.4v-316.9c0-24.7-15-53.4-33.6-64.1z"/>
					<path id="&lt;Path&gt;" class="s28" d="m611.6 231.4l-362.9-209.6c-7.4-4.3-14.1-5-19.7-2.9-0.7 0.3-15.7 9-16.4 9.3q0 0 0 0.1c5.7-2.8 13-2.3 20.9 2.3l362.9 209.6c18.5 10.7 33.6 39.5 33.6 64.2v316.9c0 15.4-5.9 25.7-14.8 28.6 0.7 0 1.6-0.3 2.9-1 0.5-0.3 16.3-9.7 16.7-10 6.4-4.5 10.3-13.7 10.3-26.4v-316.9c0-24.7-15-53.4-33.5-64.2z"/>
					<path id="&lt;Path&gt;" class="s29" d="m611.3 231.6l-362.9-209.6c-7.3-4.3-14.1-5.1-19.7-2.9-0.7 0.2-15.4 8.8-16.1 9.1q0 0 0 0.1c5.7-2.8 13-2.3 20.9 2.3l362.9 209.6c18.5 10.7 33.6 39.5 33.6 64.2v316.9c0 15.4-5.9 25.7-14.8 28.6 0.7 0 1.6-0.3 2.9-1 0.5-0.3 16-9.6 16.4-9.8 6.4-4.5 10.4-13.7 10.4-26.4v-316.9c0-24.7-15.1-53.5-33.6-64.2z"/>
					<path id="&lt;Path&gt;" class="s30" d="m611 231.8l-362.9-209.7c-7.3-4.2-14.1-5-19.6-2.8-0.7 0.2-15.2 8.6-15.9 8.9q0 0 0 0.1c5.7-2.8 13-2.3 20.9 2.3l362.9 209.6c18.5 10.7 33.6 39.5 33.6 64.2v316.9c0 15.4-5.9 25.7-14.8 28.6 0.7 0 1.6-0.3 2.9-1 0.5-0.3 15.7-9.4 16.1-9.6 6.4-4.5 10.4-13.7 10.4-26.4v-316.9c0-24.7-15.1-53.5-33.6-64.2z"/>
					<path id="&lt;Path&gt;" class="s31" d="m610.7 232l-362.9-209.7c-7.3-4.2-14.1-5-19.6-2.9-0.7 0.3-14.9 8.5-15.6 8.8q0 0 0 0.1c5.7-2.8 13-2.3 20.9 2.3l362.9 209.6c18.5 10.7 33.6 39.5 33.6 64.2v316.9c0 15.4-5.9 25.7-14.8 28.6 0.7 0 1.6-0.3 2.9-1 0.5-0.3 15.4-9.2 15.8-9.5 6.4-4.4 10.4-13.6 10.4-26.3v-316.9c0-24.8-15-53.5-33.6-64.2z"/>
					<path id="&lt;Path&gt;" class="s32" d="m610.4 232.2l-362.8-209.7c-7.4-4.2-14.2-5-19.7-2.9-0.7 0.3-14.6 8.3-15.3 8.6q0 0 0 0.1c5.7-2.8 13-2.3 20.9 2.3l362.9 209.6c18.5 10.7 33.6 39.5 33.6 64.2v316.9c0 15.4-5.9 25.7-14.8 28.6 0.7 0 1.6-0.3 2.9-1 0.5-0.3 15.2-9 15.6-9.3 6.3-4.4 10.3-13.6 10.3-26.3v-316.9c0-24.8-15-53.5-33.6-64.2z"/>
					<path id="&lt;Path&gt;" class="s33" d="m610.1 232.4l-362.8-209.7c-7.4-4.2-14.2-5-19.7-2.9-0.7 0.3-14.3 8.1-15 8.4q0 0 0 0.1c5.7-2.8 13-2.3 20.9 2.3l362.9 209.6c18.5 10.7 33.6 39.5 33.6 64.2v316.9c0 15.4-5.9 25.7-14.8 28.6 0.7 0 1.6-0.3 2.9-1 0.5-0.3 14.9-8.8 15.3-9.1 6.4-4.5 10.3-13.6 10.3-26.4v-316.8c0-24.8-15-53.5-33.6-64.2z"/>
					<path id="&lt;Path&gt;" class="s34" d="m609.9 232.6l-362.9-209.7c-7.4-4.2-14.1-5-19.7-2.9-0.7 0.3-14 7.9-14.7 8.2q0 0 0 0.1c5.7-2.8 13-2.3 20.9 2.3l362.9 209.6c18.5 10.7 33.6 39.5 33.6 64.2v316.9c0 15.4-5.9 25.7-14.8 28.6 0.7 0 1.6-0.3 2.9-1 0.5-0.3 14.6-8.6 15-8.9 6.4-4.5 10.3-13.7 10.3-26.4v-316.9c0-24.7-15-53.4-33.5-64.1z"/>
					<path id="&lt;Path&gt;" class="s35" d="m609.6 232.7l-362.9-209.6c-7.3-4.3-14.1-5-19.7-2.9-0.7 0.3-13.7 7.7-14.4 8q0 0 0 0.1c5.7-2.8 13-2.3 20.9 2.3l362.9 209.6c18.5 10.7 33.6 39.5 33.6 64.2v316.9c0 15.4-5.9 25.7-14.8 28.6 0.7 0 1.6-0.3 2.9-1 0.5-0.3 14.3-8.4 14.7-8.7 6.4-4.5 10.4-13.7 10.4-26.4v-316.9c0-24.7-15.1-53.4-33.6-64.2z"/>
					<path id="&lt;Path&gt;" class="s36" d="m609.3 232.9l-362.9-209.6c-7.3-4.3-14.1-5.1-19.6-2.9-0.7 0.2-13.5 7.5-14.2 7.8q0 0 0 0.1c5.7-2.8 13-2.3 20.9 2.3l362.9 209.6c18.5 10.7 33.6 39.5 33.6 64.2v316.9c0 15.4-5.9 25.7-14.8 28.6 0.7 0 1.6-0.3 2.9-1 0.5-0.3 14-8.2 14.4-8.5 6.4-4.5 10.4-13.7 10.4-26.4v-316.9c0-24.7-15.1-53.5-33.6-64.2z"/>
					<path id="&lt;Path&gt;" class="s37" d="m609 233.1l-362.9-209.7c-7.3-4.2-14.1-5-19.6-2.8-0.7 0.2-13.2 7.3-13.9 7.6q0 0 0 0.1c5.7-2.8 13-2.3 20.9 2.3l362.9 209.6c18.5 10.7 33.6 39.5 33.6 64.2v316.9c0 15.4-5.9 25.7-14.8 28.6 0.7 0 1.6-0.3 2.9-1 0.5-0.3 13.7-8.1 14.1-8.3 6.4-4.5 10.4-13.7 10.4-26.4v-316.9c0-24.7-15-53.5-33.6-64.2z"/>
					<path id="&lt;Path&gt;" class="s38" d="m608.7 233.3l-362.8-209.7c-7.4-4.2-14.2-5-19.7-2.8-0.7 0.2-12.9 7.1-13.6 7.4q0 0 0 0.1c5.7-2.8 13-2.3 20.9 2.3l362.9 209.6c18.5 10.7 33.6 39.5 33.6 64.2v316.9c0 15.4-5.9 25.7-14.8 28.6 0.7 0 1.6-0.3 2.9-1 0.5-0.3 13.5-7.9 13.9-8.2 6.3-4.4 10.3-13.6 10.3-26.3v-316.9c0-24.7-15-53.5-33.6-64.2z"/>
					<path id="&lt;Path&gt;" class="s39" d="m608.4 233.5l-362.8-209.7c-7.4-4.2-14.2-5-19.7-2.9-0.7 0.3-12.6 7-13.3 7.3q0 0 0 0.1c5.7-2.8 13-2.3 20.9 2.3l362.9 209.6c18.5 10.7 33.6 39.5 33.6 64.2v316.9c0 15.4-5.9 25.7-14.8 28.6 0.7 0 1.6-0.3 2.9-1 0.5-0.3 13.2-7.7 13.6-8 6.4-4.4 10.3-13.6 10.3-26.3v-316.9c0-24.8-15-53.5-33.6-64.2z"/>
					<path id="&lt;Path&gt;" class="s40" d="m608.2 233.7l-362.9-209.7c-7.4-4.2-14.1-5-19.7-2.9-0.7 0.3-12.3 6.8-13 7.1q0 0 0 0.1c5.7-2.8 13-2.3 20.9 2.3l362.9 209.6c18.5 10.7 33.6 39.5 33.6 64.2v316.9c0 15.4-5.9 25.7-14.8 28.6 0.7 0 1.6-0.3 2.9-1 0.5-0.3 12.9-7.5 13.3-7.8 6.4-4.5 10.4-13.6 10.4-26.3v-316.9c0-24.8-15.1-53.5-33.6-64.2z"/>
					<path id="&lt;Path&gt;" class="s41" d="m607.9 233.9l-362.9-209.7c-7.3-4.2-14.1-5-19.7-2.9-0.7 0.3-12 6.6-12.7 6.9q0 0 0 0.1c5.7-2.8 13-2.3 20.9 2.3l362.9 209.6c18.5 10.7 33.6 39.5 33.6 64.2v316.9c0 15.4-5.9 25.7-14.8 28.6 0.7 0 1.6-0.3 2.9-1 0.5-0.3 12.6-7.3 13-7.6 6.4-4.5 10.4-13.6 10.4-26.4v-316.8c0-24.8-15.1-53.5-33.6-64.2z"/>
					<path id="&lt;Path&gt;" class="s42" d="m607.6 234.1l-362.9-209.7c-7.3-4.3-14.1-5-19.6-2.9-0.7 0.3-11.8 6.4-12.5 6.7q0 0 0 0.1c5.7-2.8 13-2.3 20.9 2.3l362.9 209.6c18.5 10.7 33.6 39.5 33.6 64.2v316.9c0 15.4-5.9 25.7-14.8 28.6 0.7 0 1.6-0.3 2.9-1 0.5-0.3 12.3-7.1 12.7-7.4 6.4-4.5 10.4-13.7 10.4-26.4v-316.9c0-24.7-15.1-53.4-33.6-64.1z"/>
					<path id="&lt;Path&gt;" class="s43" d="m607.3 234.2l-362.9-209.6c-7.3-4.3-14.1-5.1-19.6-2.9-0.7 0.3-11.5 6.2-12.2 6.5q0 0 0 0.1c5.7-2.8 13-2.3 20.9 2.3l362.9 209.6c18.5 10.7 33.6 39.5 33.6 64.2v316.9c0 15.4-5.9 25.7-14.8 28.6 0.7 0 1.6-0.3 2.9-1 0.5-0.3 12-6.9 12.4-7.2 6.4-4.5 10.4-13.7 10.4-26.4v-316.9c0-24.7-15-53.4-33.6-64.2z"/>
					<path id="&lt;Path&gt;" class="s44" d="m607 234.4l-362.8-209.6c-7.4-4.3-14.2-5.1-19.7-2.9-0.7 0.2-11.2 6-11.9 6.3q0 0 0 0.1c5.7-2.8 13-2.3 20.9 2.3l362.9 209.6c18.5 10.7 33.6 39.5 33.6 64.2v316.9c0 15.4-5.9 25.7-14.8 28.6 0.7 0 1.6-0.3 2.9-1 0.5-0.3 11.8-6.8 12.2-7 6.3-4.5 10.3-13.7 10.3-26.4v-316.9c0-24.7-15-53.5-33.6-64.2z"/>
					<path id="&lt;Path&gt;" class="s45" d="m606.7 234.6l-362.8-209.7c-7.4-4.2-14.2-5-19.7-2.8-0.7 0.2-10.9 5.8-11.6 6.1q0 0 0 0.1c5.7-2.8 13-2.3 20.9 2.3l362.9 209.6c18.5 10.7 33.6 39.5 33.6 64.2v316.9c0 15.4-5.9 25.7-14.8 28.6 0.7 0 1.6-0.3 2.9-1 0.5-0.3 11.5-6.6 11.9-6.9 6.4-4.4 10.3-13.6 10.3-26.3v-316.9c0-24.7-15-53.5-33.6-64.2z"/>
					<path id="&lt;Path&gt;" class="s46" d="m606.5 234.8l-362.9-209.7c-7.3-4.2-14.1-5-19.7-2.9-0.7 0.3-10.6 5.7-11.3 6q0 0 0 0.1c5.7-2.8 13-2.3 20.9 2.3l362.9 209.6c18.5 10.7 33.6 39.5 33.6 64.2v316.9c0 15.4-5.9 25.7-14.8 28.6 0.7 0 1.6-0.3 2.9-1 0.5-0.3 11.2-6.4 11.6-6.7 6.4-4.4 10.4-13.6 10.4-26.3v-316.9c0-24.8-15.1-53.5-33.6-64.2z"/>
					<path id="&lt;Path&gt;" class="s47" d="m606.2 235l-362.9-209.7c-7.3-4.2-14.1-5-19.6-2.9-0.8 0.3-10.4 5.5-11.1 5.8q0 0 0 0.1c5.7-2.8 13-2.3 20.9 2.3l362.9 209.6c18.5 10.7 33.6 39.5 33.6 64.2v316.9c0 15.4-5.9 25.7-14.8 28.6 0.7 0 1.6-0.3 2.9-1 0.5-0.3 10.9-6.2 11.3-6.5 6.4-4.4 10.4-13.6 10.4-26.3v-316.9c0-24.8-15.1-53.5-33.6-64.2z"/>
					<path id="&lt;Path&gt;" class="s48" d="m605.9 235.2l-362.9-209.7c-7.3-4.2-14.1-5-19.6-2.9-0.7 0.3-10.1 5.3-10.8 5.6q0 0 0 0.1c5.7-2.8 13-2.3 20.9 2.3l362.9 209.6c18.5 10.7 33.6 39.5 33.6 64.2v316.9c0 15.4-5.9 25.7-14.8 28.6 0.7 0 1.6-0.3 2.9-1 0.5-0.3 10.6-6 11-6.3 6.4-4.5 10.4-13.6 10.4-26.4v-316.8c0-24.8-15.1-53.5-33.6-64.2z"/>
				</g>
				<path id="&lt;Path&gt;" class="s49" d="m598 239.4l-362.9-209.6c-7.6-4.4-14.6-5.1-20.2-2.6 4.8-0.8 10.3 0.4 16.2 3.8l362.9 209.6c18.5 10.7 33.5 39.5 33.5 64.2v316.9c0 14.6-5.2 24.5-13.3 28 10.4-1.7 17.4-12.3 17.4-29.2v-316.9c0-24.7-15.1-53.5-33.6-64.2z"/>
			</g>
		</g>
		<g id="&lt;Group&gt;" style="opacity: .2">
			<path id="&lt;Path&gt;" class="s0" d="m274.4 541.3c-3.7 0-7.1-0.9-9.8-2.4l-116-67.7-116-67.7c-3.5-2-5.6-5.3-5.6-8.9 0-4 2.5-7.7 6.8-10.2l1.9-15.8c3.4-2 7.6-3 11.9-3 3.7 0 7.1 0.8 9.8 2.3l123.8 71.1 123.9 71.1c3.6 2.1 5.6 5.4 5.6 9 0 4-2.5 7.7-6.8 10.1l-17.6 9c-3.4 2-7.6 3.1-11.9 3.1z"/>
			<path id="&lt;Path&gt;" class="s1" d="m35.8 369.6c3.2-1.8 7.6-3 11.7-3.1 3.6-0.1 7 0.7 9.7 2.1 0.1 0 6.3 3.6 6.4 3.6l117 67.2 8 4.6 115.4 66.2c3.4 2 5.6 5.4 5.7 8.8 0.1 3.9-2.2 7.6-6.5 10.1l-9.4 4.9c-0.1 0-7.9 4-8.1 4-3.3 1.9-7.5 2.9-11.7 2.8-3.5 0-7.1-1-9.7-2.4l-115.3-67.3-6.9-4-108.3-63.2c-3.4-2-5.8-5.3-5.8-8.8 0-3.7 1.9-7.5 6-9.9l0.2-2.5c-0.2-0.1 1.4-12.9 1.6-13.1z"/>
			<path id="&lt;Path&gt;" class="s2" d="m35.9 370.7c3-1.8 7.6-3 11.4-3.2 3.7-0.3 7 0.5 9.8 1.9 0.2 0 6.2 3.3 6.4 3.4l116.5 67 7.9 4.5 114.9 66.1c3.3 1.8 5.8 5.3 5.9 8.5 0.2 3.9-1.9 7.6-6.2 10.1l-9.3 4.9c-0.2 0.1-7.8 3.9-8.1 3.9-3.3 1.8-7.4 2.7-11.5 2.6-3.4 0-7.1-1.1-9.6-2.5l-114.5-66.8-6.9-4-107.7-62.8c-3.2-1.9-5.9-5.3-5.9-8.6 0-3.6 1.3-7.5 5.2-9.7l0.1-2.5c-0.4-0.2 1.1-12.6 1.6-12.8z"/>
			<path id="&lt;Path&gt;" class="s3" d="m36 371.7c2.8-1.6 7.6-3 11.2-3.3 3.6-0.3 7 0.4 9.7 1.7 0.3 0 6.1 3.2 6.4 3.4l116 66.7 7.9 4.5 114.5 65.8c3.1 1.7 5.8 5.3 6.1 8.4 0.3 3.7-1.6 7.5-6 10l-9.2 4.9c-0.3 0.2-7.7 3.8-8 3.8-3.4 1.7-7.4 2.6-11.4 2.4-3.2 0-7.2-1.3-9.5-2.7l-113.8-66.3-6.9-4-107-62.4c-3.1-1.7-6-5.2-6-8.3 0-3.4 0.7-7.4 4.4-9.5v-2.4c-0.6-0.3 0.9-12.3 1.6-12.7z"/>
			<path id="&lt;Path&gt;" class="s4" d="m36 372.8c2.8-1.6 7.6-3 11.1-3.4 3.5-0.5 6.9 0.2 9.6 1.4 0.5 0 6.1 3.1 6.4 3.3l115.6 66.4 7.9 4.6 114 65.5c2.9 1.7 5.9 5.3 6.2 8.2 0.4 3.7-1.3 7.4-5.7 9.9l-9.1 5c-0.4 0.2-7.5 3.7-8 3.7-3.3 1.6-7.3 2.4-11.2 2.2-3 0-7.2-1.5-9.4-2.8l-113.1-65.9-6.8-4-106.4-61.9c-2.9-1.7-6.1-5.2-6.1-8.2 0-3.2 0.2-7.2 3.6-9.3l-0.1-2.3c-0.7-0.4 0.7-11.9 1.5-12.4z"/>
			<path id="&lt;Path&gt;" class="s5" d="m36.1 373.8c2.6-1.4 7.6-3 10.9-3.5 3.4-0.5 6.8 0.1 9.6 1.3 0.5 0 6 2.9 6.4 3.1l115.1 66.2 7.8 4.5 113.5 65.3c2.8 1.6 6.1 5.3 6.4 8 0.5 3.7-1 7.4-5.4 9.9l-9 5c-0.6 0.3-7.4 3.6-8 3.6-3.3 1.6-7.2 2.3-11 2-2.8 0-7.2-1.7-9.3-2.9l-112.4-65.5-6.8-3.9-105.6-61.5c-2.8-1.6-6.3-5.3-6.3-8 0-3-0.4-7.2 2.8-9.1l-0.2-2.2c-0.9-0.6 0.4-11.6 1.5-12.3z"/>
			<path id="&lt;Path&gt;" class="s6" d="m36.2 374.9c2.4-1.4 7.6-3.1 10.6-3.6 3.4-0.7 6.8-0.1 9.6 1 0.7 0 5.9 2.8 6.4 3.1l114.7 65.9 7.7 4.5 113.1 65c2.6 1.5 6.1 5.3 6.5 7.9 0.6 3.6-0.7 7.3-5.1 9.8l-9 5c-0.6 0.3-7.1 3.5-7.9 3.5-3.2 1.5-7.1 2.1-10.8 1.8-2.6 0-7.2-1.9-9.2-3l-111.7-65-6.7-4-105-61.1c-2.6-1.5-6.4-5.2-6.4-7.8 0-2.8-1-7 2.1-8.8l-0.4-2.2c-1.1-0.6 0.2-11.2 1.5-12z"/>
			<path id="&lt;Path&gt;" class="s7" d="m36.3 375.9c2.2-1.3 7.6-3.1 10.4-3.7 3.3-0.7 6.7-0.2 9.5 0.8 0.8 0 5.9 2.7 6.5 3l114.1 65.7 7.8 4.5 112.6 64.7c2.4 1.4 6.7 5.3 6.7 7.7 1.3 3.4-0.5 7.2-4.9 9.8l-8.9 5c-0.7 0.4-7 3.4-7.9 3.4-3.2 1.4-7 1.9-10.6 1.5-2.5 0-7.3-2-9-3l-111.1-64.6-6.7-3.9-104.3-60.7c-2.4-1.4-6.5-5.2-6.5-7.6 0-2.6-1.6-7 1.3-8.6l-0.5-2.1c-1.3-0.8-0.1-11 1.5-11.9z"/>
			<path id="&lt;Path&gt;" class="s8" d="m36.4 377c2-1.2 7.6-3.2 10.2-3.8 3.2-0.9 6.6-0.4 9.5 0.6 0.9 0 5.7 2.4 6.4 2.8l113.7 65.5 7.7 4.4 112.1 64.6c2.3 1.2 6.9 5.2 6.9 7.4 1.5 3.4-0.2 7.2-4.6 9.8l-8.8 4.9c-0.8 0.5-6.8 3.4-7.8 3.4-3.3 1.3-7 1.8-10.5 1.3-2.3 0-7.3-2.2-8.9-3.1l-110.4-64.2-6.6-3.9-103.7-60.2c-2.2-1.3-6.6-5.2-6.6-7.4 0-2.5-2.2-6.9 0.5-8.4l-0.6-2.1c-1.5-0.8-0.3-10.6 1.5-11.6z"/>
			<path id="&lt;Path&gt;" class="s9" d="m36.4 378.1c2-1.2 7.7-3.3 10-4 3.2-0.9 6.6-0.5 9.5 0.4 1 0 5.7 2.3 6.5 2.8l113.2 65.2 7.7 4.4 111.6 64.3c2.1 1.2 7 5.2 7 7.3 1.7 3.2 0.1 7.1-4.3 9.6l-8.7 5c-0.9 0.6-6.7 3.2-7.8 3.3-3.2 1.2-6.9 1.6-10.3 1.1-2.1 0-7.3-2.4-8.8-3.2l-109.7-63.8-6.6-3.8-103-59.9c-2-1.2-6.7-5.1-6.7-7.2 0-2.2-2.8-6.7-0.3-8.2l-0.7-1.9c-1.7-1-0.5-10.3 1.4-11.4z"/>
			<path id="&lt;Path&gt;" class="s10" d="m36.5 379.1c1.8-1 7.7-3.3 9.8-4.1 3.1-1 6.5-0.6 9.4 0.2 1.2 0.1 5.7 2.2 6.5 2.7l112.7 64.9 7.7 4.5 111.2 64c1.9 1.1 7.1 5.2 7.1 7.1 1.9 3.2 0.4 7-4 9.6l-8.6 5c-1 0.6-6.5 3.1-7.8 3.2-3.2 1.1-6.8 1.5-10.1 0.9-1.9 0-7.3-2.5-8.7-3.3l-109-63.3-6.5-3.9-102.3-59.4c-1.9-1.1-7-5.1-7-7 0-2.1-3.2-6.7-1-8l-0.8-1.9c-1.9-1.1-0.8-9.9 1.4-11.2z"/>
			<path id="&lt;Path&gt;" class="s11" d="m36.6 380.2c1.6-1 7.7-3.5 9.6-4.2 3-1.1 6.5-0.8 9.4 0 1.2 0 5.5 2 6.4 2.5l112.3 64.7 7.6 4.4 110.8 63.8c1.7 1 7.3 5.2 7.3 6.9 2 3.1 0.6 7-3.8 9.6l-8.5 5c-1.1 0.7-6.4 3-7.8 3.1-3.2 1.1-6.7 1.3-9.9 0.7-1.8 0-7.4-2.7-8.6-3.5l-108.3-62.8-6.5-3.8-101.6-59.1c-1.7-0.9-7.1-5-7.1-6.7 0-1.9-3.8-6.6-1.8-7.8l-0.9-1.8c-2-1.2-1-9.6 1.4-11z"/>
			<path id="&lt;Path&gt;" class="s12" d="m36.7 381.2c1.4-0.8 7.7-3.5 9.4-4.3 2.9-1.2 6.4-0.9 9.3-0.2 1.4 0 5.5 1.9 6.5 2.5l111.8 64.4 7.6 4.4 110.2 63.5c1.6 0.9 7.5 5.2 7.5 6.8 2.3 3 0.9 6.9-3.6 9.5l-8.3 5c-1.3 0.7-6.3 2.9-7.8 3-3.1 1-6.6 1.2-9.7 0.5-1.6 0-7.4-2.9-8.5-3.6l-107.5-62.4-6.5-3.8-101-58.6c-1.5-0.9-7.2-5-7.2-6.6 0-1.7-4.4-6.5-2.6-7.5l-0.9-1.8c-2.3-1.3-1.4-9.3 1.3-10.8z"/>
			<path id="&lt;Path&gt;" class="s13" d="m36.8 382.3c1.2-0.8 7.7-3.7 9.1-4.4 2.9-1.4 6.4-1.1 9.3-0.5 1.5 0.1 5.4 1.8 6.5 2.4l111.3 64.2 7.6 4.3 109.8 63.3c1.4 0.8 7.6 5.2 7.6 6.6 2.5 3 1.2 6.9-3.3 9.4l-8.2 5.1c-1.4 0.8-6.1 2.8-7.7 2.9-3.2 0.9-6.6 1-9.6 0.2-1.4 0-7.4-3-8.4-3.6l-106.8-62-6.5-3.7-100.3-58.2c-1.3-0.8-7.3-5-7.3-6.4 0-1.5-5-6.4-3.4-7.3l-1-1.7c-2.5-1.4-1.6-9 1.3-10.6z"/>
			<path id="&lt;Path&gt;" class="s14" d="m36.8 383.3c1.2-0.6 7.7-3.8 9-4.5 2.8-1.4 6.3-1.2 9.2-0.6 1.7 0 5.4 1.5 6.6 2.2l110.8 64 7.6 4.3 109.3 63.1c1.2 0.7 7.7 5.1 7.7 6.3 2.7 2.9 1.5 6.8-3 9.4l-8.1 5.1c-1.5 0.8-6 2.7-7.7 2.8-3.2 0.8-6.5 0.8-9.4 0-1.2 0-7.4-3.2-8.3-3.7l-106.1-61.6-6.4-3.7-99.6-57.8c-1.2-0.6-7.5-5-7.5-6.2 0-1.3-5.6-6.2-4.1-7.1l-1.2-1.6c-2.7-1.5-1.8-8.6 1.2-10.4z"/>
			<path id="&lt;Path&gt;" class="s15" d="m36.9 384.4c1-0.6 7.7-4 8.8-4.6 2.6-1.5 6.2-1.4 9.2-0.9 1.7 0 5.2 1.4 6.5 2.2l110.4 63.6 7.5 4.4 108.8 62.8c1.1 0.6 8 5.1 8 6.2 2.8 2.8 1.7 6.7-2.8 9.3l-8.1 5.1c-1.5 0.9-5.7 2.6-7.6 2.7-3.1 0.7-6.4 0.7-9.2-0.2-1 0-7.5-3.4-8.2-3.8l-105.4-61.1-6.4-3.7-98.9-57.4c-1-0.6-7.6-5-7.6-6 0-1.1-6.2-6.2-4.9-6.9l-1.3-1.5c-2.9-1.7-2.1-8.3 1.2-10.2z"/>
			<path id="&lt;Path&gt;" class="s16" d="m37 385.4c0.8-0.4 7.5-4.7 8.5-4.7 2.9-1.1 6.2-1.5 9.2-1.1 1.9 0.1 5.2 1.3 6.5 2.1l109.9 63.4 7.5 4.3 108.4 62.6c0.9 0.5 8.1 5.2 8.1 6 3 2.7 2 6.7-2.5 9.3l-8 5.1c-1.6 0.9-5.6 2.5-7.6 2.6-3.1 0.6-6.3 0.5-9-0.4-0.9 0-7.5-3.6-8.1-3.9l-104.7-60.7-6.3-3.7-98.3-56.9c-0.8-0.5-7.7-5-7.7-5.8 0-1-6.7-6.1-5.7-6.7l-1.4-1.5c-3.1-1.7-2.3-7.9 1.2-10z"/>
			<path id="&lt;Path&gt;" class="s17" d="m37.1 386.5c0.6-0.4 7.5-4.8 8.3-4.8 2.8-1.2 6.1-1.6 9.1-1.3 2 0 5.2 1.1 6.6 1.9l109.4 63.2 7.5 4.3 107.9 62.3c0.7 0.4 8.2 5.2 8.2 5.9 3.2 2.6 2.3 6.5-2.2 9.2l-7.9 5.1c-1.7 1-5.4 2.4-7.6 2.5-3 0.6-6.2 0.4-8.8-0.6-0.7 0-7.5-3.8-8-4l-104-60.3-6.3-3.6-97.6-56.6c-0.6-0.3-7.8-4.9-7.8-5.6 0-0.7-7.3-5.9-6.5-6.4l-1.5-1.4c-3.3-1.9-2.5-7.7 1.2-9.8z"/>
			<path id="&lt;Path&gt;" class="s18" d="m37.2 387.5c0.4-0.2 7.5-4.9 8.1-4.9 2.7-1.2 6-1.7 9.1-1.5 2.1 0 5 1 6.5 1.9l109 62.9 7.4 4.3 107.5 62c0.5 0.3 8.3 5.2 8.3 5.7 3.4 2.5 2.7 6.5-1.9 9.1l-7.8 5.2c-1.8 1-5.3 2.3-7.6 2.4-3 0.5-6.1 0.2-8.6-0.8-0.5 0-7.5-3.9-7.9-4.2l-103.3-59.8-6.2-3.6-96.9-56.1c-0.6-0.3-8-4.9-8-5.4 0-0.6-7.9-5.9-7.3-6.2l-1.6-1.4c-3.4-1.9-2.8-7.3 1.2-9.6z"/>
			<path id="&lt;Path&gt;" class="s19" d="m37.2 388.6c0.4-0.2 7.6-5 8-5 2.6-1.3 5.9-1.9 9-1.8 2.2 0.1 5 0.9 6.6 1.8l108.5 62.7 7.3 4.2 107 61.9c0.4 0.1 8.5 5.1 8.5 5.4 3.7 2.5 3 6.5-1.6 9.1l-7.7 5.2c-2 1.1-5.1 2.2-7.5 2.3-3.1 0.4-6.2 0-8.5-1.1-0.3 0-7.6-4-7.8-4.2l-102.6-59.3-6.1-3.6-96.3-55.7c-0.4-0.2-8.1-4.9-8.1-5.3 0-0.3-8.5-5.7-8.1-6l-1.7-1.2c-3.6-2.1-3-7 1.1-9.4z"/>
			<path id="&lt;Path&gt;" class="s20" d="m37.3 389.6c0.2 0 7.5-5.1 7.7-5.1 2.7-1.4 6-2 9-1.9 2.4 0 4.9 0.7 6.6 1.6l108 62.4 7.4 4.3 106.5 61.6c0.2 0.1 8.7 5.1 8.7 5.3 3.8 2.3 3.2 6.3-1.4 9l-7.6 5.2c-2.1 1.2-5 2-7.5 2.2-3 0.3-6.1-0.1-8.3-1.3-0.2 0-7.6-4.2-7.7-4.3l-101.9-58.9-6.1-3.6-95.6-55.3c-0.2-0.1-8.2-4.8-8.2-5 0-0.2-9.1-5.7-8.9-5.8l-1.8-1.2c-3.8-2.2-3.3-6.6 1.1-9.2z"/>
			<path id="&lt;Path&gt;" class="s21" d="m266 532.5l-114.8-66.4-114.9-66.4c-4-2.3-3.5-6.3 1.1-9l7.5-5.2c4.6-2.7 11.6-2.9 15.6-0.6l114.8 66.4 114.9 66.4c4 2.3 3.5 6.3-1.1 9l-7.5 5.2c-4.6 2.6-11.6 2.9-15.6 0.6z"/>
		</g>
		<g id="&lt;Group&gt;">
			<path id="&lt;Path&gt;" class="s50" d="m287.1 166.9l84.9 49c3.5 2 6.3 7.4 6.3 12.1v58.5c0 4.6-2.8 6.7-6.3 4.7l-84.9-49c-3.5-2-6.3-7.4-6.3-12v-58.5c0-4.7 2.8-6.8 6.3-4.8z"/>
			<path id="&lt;Path&gt;" class="s51" d="m177.3 103.5l84.9 49c3.4 2 6.3 6.9 6.3 10.9v60.8c0 4-2.9 5.6-6.3 3.6l-84.9-49c-3.5-2-6.4-6.9-6.4-10.9v-60.8c0-4 2.9-5.6 6.4-3.6z"/>
			<path id="&lt;Compound Path&gt;" fill-rule="evenodd" class="s52" d="m164.3 195.8v-124.4l220.6 127.4v7.3l-5.3-3v10.9l5.3 3v88l-5.3-3v10.9l5.3 3v7.3zm12.9-92.4c-3.4-2-6.3-0.4-6.3 3.6v60.9c0 4 2.9 8.8 6.3 10.8l84.9 49.1c3.5 2 6.4 0.4 6.4-3.6v-60.9c0-4-2.9-8.8-6.4-10.8zm30.3 99.1l-6.2-3.6v10.9l6.2 3.6zm16.2 9.3l-6.2-3.5v10.8l6.2 3.6zm16.3 9.4l-6.3-3.6v10.9l6.3 3.5zm16.2 9.4l-6.2-3.6v10.9l6.2 3.6zm16.2 9.3l-6.2-3.6v10.9l6.2 3.6zm8.4-9.9c0 4.6 2.8 10 6.3 12l84.9 49c3.5 2.1 6.3-0.1 6.3-4.7v-58.5c0-4.6-2.8-10.1-6.3-12.1l-84.9-49c-3.5-2-6.3 0.1-6.3 4.8zm24 28.6l-6.2-3.5v10.8l6.2 3.6zm16.2 9.4l-6.2-3.6v10.8l6.2 3.6zm16.2 9.4l-6.2-3.6v10.9l6.2 3.6zm16.2 9.3l-6.2-3.6v10.9l6.2 3.6zm16.2 9.3l-6.2-3.5v10.8l6.2 3.6zm-6.2-91.6l6.2 3.5v-10.8l-6.2-3.6zm-16.2-9.4l6.2 3.6v-10.8l-6.2-3.6zm-16.2-9.4l6.2 3.6v-10.9l-6.2-3.6zm-16.2-9.3l6.2 3.6v-10.9l-6.2-3.6zm-16.2-9.3l6.2 3.5v-10.8l-6.2-3.6zm-16.2-9.4l6.2 3.6v-10.9l-6.2-3.5zm6.2 91.6l-6.2-3.6v10.9l6.2 3.6zm-22.4-101l6.2 3.6v-10.9l-6.2-3.6zm-16.2-9.4l6.2 3.6v-10.8l-6.2-3.6zm-16.3-9.4l6.3 3.6v-10.9l-6.3-3.5zm-16.2-9.4l6.2 3.6v-10.9l-6.2-3.6zm-16.2-9.3l6.2 3.6v-10.9l-6.2-3.6zm-16.2-9.4l6.2 3.6v-10.8l-6.2-3.6zm6.2 91.6l-6.2-3.6v10.9l6.2 3.6zm-22.4-101l6.2 3.6v-10.9l-6.2-3.6zm0 98.9l6.2 3.6v-10.8l-6.2-3.6z"/>
			<path id="&lt;Path&gt;" class="s53" d="m490.2 359.7l-84.9-49.1c-3.5-2-6.4-7.4-6.4-12v-58.5c0-4.6 2.9-6.8 6.4-4.8l84.9 49.1c3.4 2 6.3 7.4 6.3 12v58.5c0 4.6-2.9 6.8-6.3 4.8z"/>
			<path id="&lt;Path&gt;" class="s54" d="m600 423.1l-84.9-49c-3.5-2-6.3-6.9-6.3-10.9v-60.8c0-4 2.8-5.6 6.3-3.6l84.9 49c3.5 2 6.3 6.9 6.3 10.9v60.8c0 4-2.8 5.6-6.3 3.6z"/>
			<path id="&lt;Compound Path&gt;" fill-rule="evenodd" class="s55" d="m613 330.7v124.4l-220.6-127.3v-7.3l5.2 3v-10.9l-5.2-3v-88.1l5.2 3.1v-10.9l-5.2-3v-7.3zm-13 92.3c3.5 2 6.3 0.4 6.3-3.6v-60.8c0-4-2.8-8.9-6.3-10.9l-84.9-49c-3.5-2-6.3-0.4-6.3 3.6v60.8c0 4 2.8 8.9 6.3 10.9zm-30.3-99.1l6.2 3.5v-10.8l-6.2-3.6zm-16.2-9.4l6.2 3.6v-10.9l-6.2-3.5zm-16.2-9.4l6.2 3.6v-10.9l-6.2-3.6zm-16.2-9.3l6.2 3.6v-10.9l-6.2-3.6zm-16.2-9.3l6.2 3.5v-10.8l-6.2-3.6zm-8.4 9.9c0-4.6-2.9-10-6.3-12.1l-84.9-49c-3.5-2-6.4 0.2-6.4 4.8v58.5c0 4.6 2.9 10 6.4 12l84.9 49.1c3.4 2 6.3-0.2 6.3-4.8zm-24-28.7l6.2 3.6v-10.8l-6.2-3.6zm-16.2-9.4l6.2 3.6v-10.9l-6.2-3.6zm-16.2-9.3l6.2 3.6v-10.9l-6.2-3.6zm-16.2-9.3l6.2 3.5v-10.8l-6.2-3.6zm-16.3-9.4l6.3 3.6v-10.8l-6.3-3.6zm6.3 91.6l-6.3-3.6v10.9l6.3 3.6zm16.2 9.3l-6.2-3.5v10.8l6.2 3.6zm16.2 9.4l-6.2-3.6v10.8l6.2 3.6zm16.2 9.4l-6.2-3.6v10.9l6.2 3.6zm16.2 9.3l-6.2-3.6v10.9l6.2 3.6zm16.2 9.3l-6.2-3.5v10.8l6.2 3.6zm-6.2-91.6l6.2 3.5v-10.8l-6.2-3.6zm22.4 101l-6.2-3.6v10.9l6.2 3.6zm16.2 9.3l-6.2-3.6v10.9l6.2 3.6zm16.2 9.4l-6.2-3.6v10.8l6.2 3.6zm16.2 9.4l-6.2-3.6v10.9l6.2 3.5zm16.2 9.4l-6.2-3.6v10.9l6.2 3.6zm16.3 9.3l-6.2-3.6v10.9l6.2 3.6zm-6.2-91.6l6.2 3.5v-10.8l-6.2-3.6zm22.4 101l-6.2-3.6v10.9l6.2 3.6zm0-99l-6.2-3.6v10.9l6.2 3.6z"/>
			<path id="&lt;Path&gt;" class="s56" d="m427.9 265.1l-76.5-44.2 4 7-4.4 2.5v0.2l4.4 7.7-4.4 2.6v0.1l4.4 7.7-4.4 2.6v0.2l4.4 7.7-3.8 2.2 76 43.9-3.8-6.6 4.5-2.5v-0.2l-4.5-7.7 4.5-2.6v-0.2l-4.5-7.7 4.5-2.5v-0.2l-4.5-7.7z"/>
			<path id="&lt;Path&gt;" class="s57" d="m426.5 265.9l-76.5-44.3 4.1 7-4.5 2.6v0.2l4.5 7.7-4.5 2.5v0.2l4.5 7.7-4.5 2.6v0.2l4.5 7.7-3.9 2.2 76.1 43.9-3.9-6.6 4.5-2.5v-0.2l-4.5-7.7 4.5-2.6v-0.2l-4.5-7.7 4.5-2.5v-0.2l-4.5-7.7z"/>
			<path id="&lt;Path&gt;" class="s58" d="m426.9 275.9l-4.5-7.7 4.1-2.3-76.5-44.3 1.1 1.9 73.6 42.6-4 2.3 4.4 7.7v0.2l-4.4 2.5 4.4 7.7v0.2l-4.4 2.6 4.4 7.7v0.2l-4.4 2.5 2.7 4.8 2.9 1.6-3.9-6.6 4.5-2.5v-0.2l-4.5-7.7 4.5-2.6v-0.2l-4.5-7.7 4.5-2.5z"/>
		</g>
		<g id="&lt;Group&gt;">
			<path id="&lt;Compound Path&gt;" fill-rule="evenodd" class="s59" d="m315.7 130.3l-6.3 8.9c-3.5 5-11.3 2.9-17.3-4.7l-1.8-2.1q-0.7-0.9-1.4-2l-6 8.4-12.6-7.4 15.4-21.6 2.3-3.3 4-5.6c3.5-5 11.3-2.9 17.4 4.7l1.7 2.1c6.1 7.5 8.1 17.6 4.6 22.6zm-9.6-15.6l-1.7-2.1c-1.3-1.6-3-2.1-3.8-1l-6.3 8.9c-0.8 1.1-0.3 3.3 1 4.9l1.7 2.1c1.3 1.6 3 2.1 3.8 1l6.3-8.9c0.8-1.1 0.3-3.3-1-4.9z"/>
			<path id="&lt;Compound Path&gt;" fill-rule="evenodd" class="s60" d="m313.7 130.4l-6.3 9c-3.5 4.9-11.3 2.8-17.4-4.7l-1.7-2.1q-0.8-1-1.4-2l-6 8.4-12.6-7.4 15.4-21.6 2.3-3.3 4-5.7c3.5-4.9 11.3-2.8 17.3 4.7l1.8 2.2c6 7.5 8.1 17.6 4.6 22.5zm-9.6-15.5l-1.7-2.2c-1.3-1.6-3-2-3.8-1l-6.3 9c-0.8 1-0.3 3.2 1 4.8l1.7 2.2c1.3 1.6 3 2.1 3.8 1l6.3-9c0.8-1 0.3-3.2-1-4.8z"/>
			<g id="&lt;Group&gt;" style="mix-blend-mode: color-dodge">
				<path id="&lt;Path&gt;" class="s61" d="m298.6 111.8c-0.4 0-0.8 0.2-1 0.5l-6.3 9c-0.8 1.1-0.4 3.2 1 4.9l1.7 2.1c1.3 1.6 3 2.1 3.7 1l0.1-0.1c-0.9 0.1-1.9-0.4-2.8-1.5l-1.7-2.2c-1.3-1.6-1.8-3.8-1-4.8z"/>
				<path id="&lt;Path&gt;" class="s62" d="m285.8 131.2l-5.3 7.5 0.4 0.3 5.2-7.4q-0.1-0.2-0.3-0.4z"/>
				<path id="&lt;Path&gt;" class="s63" d="m309.1 107.9l-1.8-2.2c-5.3-6.6-12-9-15.9-6.1 4-1.9 10 0.7 14.9 6.7l1.7 2.2c6.1 7.5 8.2 17.6 4.7 22.6l-6.4 8.9q-0.6 0.9-1.4 1.5 1.4-0.7 2.5-2.1l6.3-9c3.5-4.9 1.4-15-4.6-22.5z"/>
			</g>
			<path id="&lt;Compound Path&gt;" fill-rule="evenodd" class="s59" d="m266.2 86l4 10.2 2.3 6 25.4 65.1c4.8 12.2 6.9 24.3 6.2 34.8l-0.4 5.1-34.4-88q-0.6 0.2-1.4 0.3l-1.7 0.1c-6.1 0.5-13.9-6.3-17.4-15.3l-6.3-16.3c-3.5-9-1.4-16.7 4.6-17.2l1.8-0.2c6-0.5 13.8 6.4 17.3 15.4zm-3.3 20.7c1.3-0.1 1.8-1.8 1-3.7l-6.3-16.3c-0.8-1.9-2.5-3.4-3.8-3.3l-1.7 0.1c-1.3 0.2-1.8 1.8-1 3.8l6.4 16.2c0.7 2 2.4 3.4 3.7 3.3z"/>
			<path id="&lt;Compound Path&gt;" fill-rule="evenodd" class="s64" d="m264.2 86.1l4 10.2 2.3 6.1 25.4 65c4.8 12.2 6.9 24.4 6.2 34.8l-0.4 5.2-34.4-88.1q-0.7 0.2-1.4 0.3l-1.7 0.2c-6.1 0.5-13.9-6.4-17.4-15.4l-6.3-16.3c-3.5-8.9-1.5-16.7 4.6-17.2l1.7-0.1c6.1-0.5 13.9 6.3 17.4 15.3zm-3.3 20.7c1.3-0.1 1.8-1.7 1-3.7l-6.3-16.2c-0.8-2-2.5-3.5-3.8-3.4l-1.7 0.2c-1.3 0.1-1.8 1.8-1 3.7l6.3 16.3c0.8 1.9 2.5 3.4 3.8 3.3z"/>
			<g id="&lt;Group&gt;" style="mix-blend-mode: color-dodge">
				<path id="&lt;Path&gt;" class="s65" d="m248.5 88.9l6.3 16.2c0.8 2 2.4 3.5 3.8 3.3l1.7-0.1c0.8-0.1 1.3-0.8 1.3-1.8q-0.3 0.3-0.7 0.3l-1.7 0.2c-1.3 0.1-3-1.4-3.8-3.3l-6.3-16.3c-0.3-0.7-0.4-1.4-0.4-2-0.7 0.6-0.8 2-0.2 3.5z"/>
				<path id="&lt;Path&gt;" class="s66" d="m295.9 167.4l-25.4-65-2.3-6.1-4-10.2c-3.5-9-11.3-15.8-17.4-15.3l-1.7 0.1c-2.8 0.3-4.7 2.1-5.7 4.8 1.1-1.9 2.8-3.1 5.1-3.3l1.7-0.2c6.1-0.5 13.9 6.4 17.4 15.4l3.9 10.2 2.4 6 25.4 65.1c4.8 12.2 6.9 24.3 6.2 34.8l-0.2 2.6 0.4 1.1 0.4-5.2c0.7-10.4-1.4-22.6-6.2-34.8z"/>
			</g>
			<path id="&lt;Path&gt;" class="s67" d="m278.4 130.9c0 1.6-1.1 2.2-2.5 1.4-1.3-0.7-2.4-2.6-2.4-4.1 0-1.6 1.1-2.2 2.4-1.4 1.4 0.7 2.5 2.6 2.5 4.1z"/>
		</g>
		<g id="&lt;Group&gt;">
			<path id="&lt;Path&gt;" class="s68" d="m608.4 583.1l-390.1-225.2v-31.7l390.1 225.1z"/>
			<path id="&lt;Path&gt;" class="s69" d="m608.4 533.7l-390.1-225.2v-3.7l390.1 225.2z"/>
			<path id="&lt;Path&gt;" class="s68" d="m608.4 616.6l-390.1-225.2v-31.7l390.1 225.2z"/>
			<path id="&lt;Path&gt;" class="s70" d="m421.4 475.1l-203.1-117.2v-31.7l203.1 117.2z"/>
			<path id="&lt;Path&gt;" class="s70" d="m514.2 528.6l-93.9-54.2v-31.7l93.9 54.2z"/>
			<path id="&lt;Path&gt;" class="s71" d="m555.7 552.6l-93.9-54.2v-31.7l93.9 54.2z"/>
			<path id="&lt;Path&gt;" class="s72" d="m381.4 485.6l-163.1-94.2v-31.7l163.1 94.2z"/>
			<path id="&lt;Path&gt;" class="s73" d="m467 535l-156.7-90.5v-31.7l156.7 90.5z"/>
			<g id="&lt;Group&gt;">
				<path id="&lt;Path&gt;" class="s74" d="m450.8 540.2l-3.6-2.1v-113l3.6 2.1z"/>
			</g>
			<g id="&lt;Group&gt;">
				<path id="&lt;Path&gt;" class="s69" d="m226.8 311.6l-2.1-1.3v-12.2l2.1 1.3z"/>
				<path id="&lt;Path&gt;" class="s69" d="m260.9 331.2l-2.1-1.2v-12.2l2.1 1.2z"/>
				<path id="&lt;Path&gt;" class="s69" d="m295.1 350.9l-2.2-1.2v-24.4l2.2 1.2z"/>
				<path id="&lt;Path&gt;" class="s69" d="m329.2 370.6l-2.2-1.2v-12.2l2.2 1.2z"/>
				<path id="&lt;Path&gt;" class="s69" d="m363.3 390.3l-2.2-1.2v-12.2l2.2 1.2z"/>
				<path id="&lt;Path&gt;" class="s69" d="m397.4 410l-2.2-1.2v-12.2l2.2 1.2z"/>
				<path id="&lt;Path&gt;" class="s69" d="m431.5 429.7l-2.1-1.2v-12.2l2.1 1.2z"/>
				<path id="&lt;Path&gt;" class="s69" d="m465.6 449.4l-2.1-1.2v-12.2l2.1 1.2z"/>
				<path id="&lt;Path&gt;" class="s69" d="m499.7 469.1l-2.1-1.2v-24.4l2.1 1.2z"/>
				<path id="&lt;Path&gt;" class="s69" d="m533.8 488.8l-2.1-1.3v-12.2l2.1 1.3z"/>
				<path id="&lt;Path&gt;" class="s69" d="m567.9 508.5l-2.1-1.3v-12.2l2.1 1.3z"/>
				<path id="&lt;Path&gt;" class="s69" d="m602 528.2l-2.1-1.3v-12.2l2.1 1.3z"/>
			</g>
			<g id="&lt;Group&gt;">
				<path id="&lt;Path&gt;" class="s75" d="m459.9 434.5l-10.4 7.5-11.3-20v-24.1l21.7 12.6z"/>
			</g>
			<path id="&lt;Path&gt;" class="s76" d="m438.2 397.9v1.3l20.7 11.9v24.1l-9.4 6.7v0.1l10.4-7.5v-24z"/>
		</g>
		<g id="&lt;Group&gt;">
			<g id="&lt;Group&gt;">
				<g id="&lt;Group&gt;" style="opacity: .7;mix-blend-mode: multiply">
					<path id="&lt;Path&gt;" class="s0" d="m188 196.7c-15.3-8.9-27.7-1.8-27.7 15.8v168.2c0 17.6 12.4 39 27.7 47.8l92.5 54.7c15.3 8.9 33.9 0.8 33.9-16.7v-168.3c0-17.5-18.6-38-33.9-46.8z"/>
					<path id="&lt;Path&gt;" class="s77" d="m187.7 197.7c-15.1-8.7-27.4-1.7-27.4 15.7v166.7c0 17.4 12.3 38.6 27.4 47.3l91.8 54.2c15.2 8.8 33 0.9 33-16.5v-166.7c0-17.4-17.8-37.7-33-46.5z"/>
					<path id="&lt;Path&gt;" class="s78" d="m187.5 198.8c-15-8.7-27.2-1.7-27.2 15.4v165.4c0 17.2 12.2 38.1 27.2 46.8l91.1 53.7c14.9 8.6 32.1 0.9 32.1-16.3v-165.3c0-17.2-17.2-37.4-32.1-46z"/>
					<path id="&lt;Path&gt;" class="s79" d="m187.2 199.9c-14.8-8.6-26.8-1.8-26.8 15.2v163.9c0 17 12 37.7 26.8 46.3l90.4 53.2c14.8 8.5 31.3 1 31.3-16v-163.9c0-17-16.5-37-31.3-45.6z"/>
					<path id="&lt;Path&gt;" class="s80" d="m186.9 200.9c-14.6-8.4-26.5-1.7-26.5 15.1v162.5c0 16.8 11.9 37.2 26.5 45.7l89.7 52.7c14.6 8.4 30.4 1 30.4-15.8v-162.4c0-16.8-15.8-36.6-30.4-45.1z"/>
					<path id="&lt;Path&gt;" class="s81" d="m186.7 202c-14.5-8.4-26.3-1.7-26.3 14.9v161c0 16.6 11.8 36.8 26.3 45.2l88.9 52.2c14.5 8.3 29.6 1.1 29.6-15.5v-161c0-16.6-15.1-36.3-29.6-44.6z"/>
					<path id="&lt;Path&gt;" class="s81" d="m186.4 203c-14.3-8.2-25.9-1.6-25.9 14.8v159.5c0 16.5 11.6 36.5 25.9 44.7l88.3 51.7c14.3 8.3 28.6 1.2 28.6-15.2v-159.5c0-16.5-14.3-36-28.6-44.3z"/>
					<path id="&lt;Path&gt;" class="s82" d="m186.1 204.1c-14.1-8.2-25.6-1.6-25.6 14.6v158.1c0 16.2 11.5 36 25.6 44.1l87.6 51.2c14.1 8.2 27.8 1.3 27.8-14.9v-158.1c0-16.2-13.7-35.7-27.8-43.8z"/>
					<path id="&lt;Path&gt;" class="s83" d="m185.8 205.2c-13.9-8.1-25.3-1.6-25.3 14.4v156.6c0 16 11.4 35.6 25.3 43.7l86.9 50.6c14 8.1 27 1.4 27-14.7v-156.6c0-16-13-35.3-27-43.4z"/>
					<path id="&lt;Path&gt;" class="s84" d="m185.6 206.2c-13.8-7.9-25-1.5-25 14.3v155.2c0 15.8 11.2 35.1 25 43.1l86.1 50.1c13.8 8 26.1 1.4 26.1-14.4v-155.2c0-15.8-12.3-34.9-26.1-42.9z"/>
					<path id="&lt;Path&gt;" class="s85" d="m185.3 207.3c-13.7-7.9-24.7-1.6-24.7 14.1v153.7c0 15.6 11 34.7 24.7 42.6l85.4 49.6c13.7 7.9 25.3 1.5 25.3-14.1v-153.7c0-15.7-11.6-34.7-25.3-42.5z"/>
					<path id="&lt;Path&gt;" class="s24" d="m185 208.4c-13.5-7.8-24.4-1.6-24.4 13.9v152.2c0 15.5 10.9 34.3 24.4 42.1l84.8 49.1c13.4 7.8 24.4 1.6 24.4-13.9v-152.2c0-15.5-11-34.3-24.4-42.1z"/>
				</g>
				<path id="&lt;Path&gt;" class="s86" d="m266.7 531l-224.5-129.7c-11.4-6.6-20.7-24.4-20.7-39.7v-212.9c0-15.3 9.3-22.4 20.7-15.8l224.5 129.7c11.4 6.7 20.7 24.4 20.7 39.7v213c0 15.3-9.3 22.3-20.7 15.7z"/>
				<path id="&lt;Path&gt;" class="s87" d="m272.7 524.2l-228-131.7c-9.6-6.1-15.4-18.2-15.4-30.5v-219.4c0-2.9 3.1-4.8 5.7-3.3q0.4 0.3 0.6 0.4l228.3 131.9c11.4 6.6 15.5 18.2 15.5 30.5v218.9c0 3.1-3.4 5.1-6.2 3.5q-0.3-0.2-0.5-0.3z"/>
				<path id="&lt;Path&gt;" class="s88" d="m263.9 271.6l-228.3-131.9q-0.2-0.1-0.6-0.4c-2.6-1.5-5.7 0.4-5.7 3.3v219.4c0 12.3 5.8 24.4 15.4 30.5l228 131.7q0.2 0.1 0.5 0.3c2.8 1.6 6.2-0.4 6.2-3.5v-218.9c0-12.3-4.1-23.9-15.5-30.5z"/>
				<path id="&lt;Path&gt;" class="s89" d="m276.9 470.7v-168.6c0-9.2-2.4-21.6-14.2-28.4l-228.9-132.3q-0.4-0.2-0.7-0.2c-0.7 0-1.4 0.5-1.4 1.4v186.4z"/>
				<g id="&lt;Group&gt;">
					<path id="&lt;Path&gt;" class="s90" d="m276.2 257.1l-224.4-129.7c-4.5-2.6-8.7-3.1-12.2-1.8-0.4 0.2-9.9 5.7-10.3 5.9 3.5-1.7 8-1.4 12.9 1.4l224.5 129.7c11.4 6.7 20.7 24.4 20.7 39.7v213c0 9.5-3.6 15.8-9.1 17.6 0.5 0.1 1-0.1 1.8-0.6 0.3-0.1 10.2-6.1 10.5-6.3 3.9-2.7 6.4-8.4 6.4-16.3v-212.9c0-15.3-9.3-33.1-20.8-39.7z"/>
					<path id="&lt;Path&gt;" class="s91" d="m276.1 257.2l-224.5-129.7c-4.5-2.6-8.7-3.1-12.1-1.8-0.5 0.2-9.8 5.6-10.2 5.8 3.5-1.7 8-1.4 12.9 1.4l224.5 129.7c11.4 6.7 20.7 24.4 20.7 39.7v213c0 9.5-3.6 15.8-9.1 17.6 0.5 0.1 1-0.1 1.8-0.6 0.3-0.1 10.1-6 10.3-6.2 4-2.7 6.4-8.4 6.4-16.3v-212.9c0-15.3-9.3-33.1-20.7-39.7z"/>
					<path id="&lt;Path&gt;" class="s92" d="m275.9 257.3l-224.5-129.7c-4.5-2.6-8.7-3.1-12.1-1.8-0.4 0.2-9.6 5.5-10 5.7 3.5-1.7 8-1.4 12.9 1.4l224.5 129.7c11.4 6.7 20.7 24.4 20.7 39.7v213c0 9.5-3.6 15.8-9.1 17.6 0.5 0.1 1-0.1 1.8-0.6 0.3-0.1 9.9-5.9 10.2-6 3.9-2.8 6.4-8.5 6.4-16.3v-213c0-15.3-9.3-33.1-20.8-39.7z"/>
					<path id="&lt;Path&gt;" class="s93" d="m275.7 257.4l-224.4-129.7c-4.6-2.6-8.8-3.1-12.2-1.7-0.4 0.1-9.4 5.3-9.8 5.5 3.5-1.7 8-1.4 12.9 1.4l224.5 129.7c11.4 6.7 20.7 24.4 20.7 39.7v213c0 9.5-3.6 15.8-9.1 17.6 0.5 0.1 1-0.1 1.8-0.6 0.3-0.1 9.7-5.8 10-5.9 3.9-2.8 6.4-8.5 6.4-16.3v-213c0-15.3-9.3-33.1-20.8-39.7z"/>
					<path id="&lt;Path&gt;" class="s94" d="m275.5 257.5l-224.4-129.6c-4.5-2.7-8.7-3.1-12.2-1.8-0.4 0.1-9.2 5.2-9.6 5.4 3.5-1.7 8-1.4 12.9 1.4l224.5 129.7c11.4 6.7 20.7 24.4 20.7 39.7v213c0 9.5-3.6 15.8-9.1 17.6 0.5 0.1 1-0.1 1.8-0.6 0.3-0.1 9.5-5.6 9.8-5.8 3.9-2.8 6.4-8.5 6.4-16.3v-213c0-15.3-9.3-33-20.8-39.7z"/>
					<path id="&lt;Path&gt;" class="s95" d="m275.4 257.7l-224.5-129.7c-4.5-2.7-8.7-3.1-12.1-1.8-0.5 0.2-9.1 5.1-9.5 5.3 3.5-1.7 8-1.4 12.9 1.4l224.5 129.7c11.4 6.7 20.7 24.4 20.7 39.7v213c0 9.5-3.6 15.8-9.1 17.6 0.5 0.1 1-0.1 1.8-0.6 0.3-0.1 9.4-5.5 9.6-5.7 4-2.8 6.4-8.4 6.4-16.3v-213c0-15.2-9.3-33-20.7-39.6z"/>
					<path id="&lt;Path&gt;" class="s96" d="m275.2 257.8l-224.5-129.7c-4.5-2.6-8.7-3.1-12.1-1.8-0.4 0.2-8.9 5-9.3 5.2 3.5-1.7 8-1.4 12.9 1.4l224.5 129.7c11.4 6.7 20.7 24.4 20.7 39.7v213c0 9.5-3.6 15.8-9.1 17.6 0.5 0.1 1-0.1 1.8-0.6 0.3-0.1 9.2-5.4 9.5-5.6 3.9-2.7 6.4-8.4 6.4-16.3v-212.9c0-15.3-9.3-33.1-20.8-39.7z"/>
					<path id="&lt;Path&gt;" class="s97" d="m275 257.9l-224.4-129.7c-4.6-2.6-8.8-3.1-12.2-1.8-0.4 0.2-8.7 4.9-9.1 5.1 3.5-1.7 8-1.4 12.9 1.4l224.5 129.7c11.4 6.7 20.7 24.4 20.7 39.7v213c0 9.5-3.6 15.8-9.1 17.6 0.5 0.1 1-0.1 1.8-0.6 0.3-0.1 9-5.3 9.3-5.5 3.9-2.7 6.4-8.4 6.4-16.3v-212.9c0-15.3-9.3-33.1-20.8-39.7z"/>
					<path id="&lt;Path&gt;" class="s98" d="m274.8 258l-224.4-129.7c-4.5-2.6-8.7-3.1-12.2-1.8-0.4 0.2-8.5 4.8-8.9 5 3.5-1.7 8-1.4 12.9 1.4l224.5 129.7c11.4 6.7 20.7 24.4 20.7 39.7v213c0 9.5-3.6 15.8-9.1 17.6 0.5 0.1 1-0.1 1.8-0.6 0.3-0.1 8.9-5.2 9.1-5.3 3.9-2.8 6.4-8.5 6.4-16.4v-212.9c0-15.3-9.3-33.1-20.8-39.7z"/>
					<path id="&lt;Path&gt;" class="s99" d="m274.7 258.1l-224.5-129.7c-4.5-2.6-8.7-3.1-12.1-1.8-0.5 0.2-8.4 4.7-8.8 4.9 3.5-1.7 8-1.4 12.9 1.4l224.5 129.7c11.4 6.7 20.7 24.4 20.7 39.7v213c0 9.5-3.6 15.8-9.1 17.6 0.5 0.1 1-0.1 1.8-0.6 0.3-0.1 8.7-5.1 8.9-5.2 4-2.8 6.4-8.5 6.4-16.3v-213c0-15.3-9.3-33.1-20.7-39.7z"/>
					<path id="&lt;Path&gt;" class="s100" d="m274.5 258.2l-224.5-129.7c-4.5-2.6-8.7-3.1-12.1-1.7-0.4 0.1-8.2 4.5-8.6 4.7 3.5-1.7 8-1.4 12.9 1.4l224.5 129.7c11.4 6.7 20.7 24.4 20.7 39.7v213c0 9.5-3.6 15.8-9.1 17.6 0.5 0.1 1-0.1 1.8-0.6 0.3-0.1 8.5-4.9 8.8-5.1 3.9-2.8 6.4-8.5 6.4-16.3v-213c0-15.3-9.3-33-20.8-39.7z"/>
					<path id="&lt;Path&gt;" class="s101" d="m274.3 258.3l-224.4-129.6c-4.6-2.7-8.8-3.1-12.2-1.8-0.4 0.1-8 4.4-8.4 4.6 3.5-1.7 8-1.4 12.9 1.4l224.5 129.7c11.4 6.7 20.7 24.4 20.7 39.7v213c0 9.5-3.6 15.8-9.1 17.6 0.5 0.1 1-0.1 1.8-0.6 0.3-0.1 8.3-4.8 8.6-5 3.9-2.8 6.4-8.4 6.4-16.3v-213c0-15.3-9.3-33-20.8-39.7z"/>
					<path id="&lt;Path&gt;" class="s102" d="m274.1 258.5l-224.4-129.7c-4.5-2.6-8.7-3.1-12.2-1.8-0.4 0.2-7.8 4.3-8.2 4.5 3.5-1.7 8-1.4 12.9 1.4l224.5 129.7c11.4 6.7 20.7 24.4 20.7 39.7v213c0 9.5-3.6 15.8-9.1 17.6 0.5 0.1 1-0.1 1.8-0.6 0.3-0.1 8.2-4.7 8.4-4.9 3.9-2.8 6.4-8.4 6.4-16.3v-212.9c0-15.3-9.3-33.1-20.8-39.7z"/>
					<path id="&lt;Path&gt;" class="s103" d="m274 258.6l-224.5-129.7c-4.5-2.6-8.7-3.1-12.1-1.8-0.5 0.2-7.7 4.2-8.1 4.4 3.5-1.7 8-1.4 12.9 1.4l224.5 129.7c11.4 6.7 20.7 24.4 20.7 39.7v213c0 9.5-3.6 15.8-9.1 17.6 0.5 0.1 1-0.1 1.8-0.6 0.3-0.1 8-4.6 8.2-4.8 4-2.7 6.4-8.4 6.4-16.3v-212.9c0-15.3-9.3-33.1-20.7-39.7z"/>
					<path id="&lt;Path&gt;" class="s104" d="m273.8 258.7l-224.5-129.7c-4.5-2.6-8.7-3.1-12.1-1.8-0.4 0.2-7.5 4.1-7.9 4.3 3.5-1.7 8-1.4 12.9 1.4l224.5 129.7c11.4 6.7 20.7 24.4 20.7 39.7v213c0 9.5-3.6 15.8-9.1 17.6 0.5 0.1 1-0.1 1.8-0.6 0.3-0.1 7.8-4.5 8.1-4.7 3.9-2.7 6.4-8.4 6.4-16.3v-212.9c0-15.3-9.3-33.1-20.8-39.7z"/>
					<path id="&lt;Path&gt;" class="s105" d="m273.6 258.8l-224.4-129.7c-4.6-2.6-8.8-3.1-12.2-1.8-0.4 0.2-7.3 4-7.7 4.2 3.5-1.7 8-1.4 12.9 1.4l224.5 129.7c11.4 6.7 20.7 24.4 20.7 39.7v213c0 9.5-3.6 15.8-9.1 17.6 0.5 0.1 1-0.1 1.8-0.6 0.3-0.1 7.6-4.4 7.9-4.5 3.9-2.8 6.4-8.5 6.4-16.3v-213c0-15.3-9.3-33.1-20.8-39.7z"/>
					<path id="&lt;Path&gt;" class="s106" d="m273.4 258.9l-224.4-129.7c-4.5-2.6-8.7-3.1-12.2-1.7-0.4 0.1-7.1 3.8-7.5 4 3.5-1.7 8-1.4 12.9 1.4l224.5 129.7c11.4 6.7 20.7 24.4 20.7 39.7v213c0 9.5-3.6 15.8-9.1 17.6 0.5 0.1 1-0.1 1.8-0.6 0.3-0.1 7.5-4.3 7.7-4.4 3.9-2.8 6.4-8.5 6.4-16.3v-213c0-15.3-9.3-33.1-20.8-39.7z"/>
					<path id="&lt;Path&gt;" class="s107" d="m273.3 259l-224.5-129.6c-4.5-2.7-8.7-3.1-12.1-1.8-0.5 0.1-7 3.7-7.4 3.9 3.5-1.7 8-1.4 12.9 1.4l224.5 129.7c11.4 6.7 20.7 24.4 20.7 39.7v213c0 9.5-3.6 15.8-9.1 17.6 0.5 0.1 1-0.1 1.8-0.6 0.3-0.1 7.3-4.1 7.5-4.3 4-2.8 6.4-8.5 6.4-16.3v-213c0-15.3-9.3-33-20.7-39.7z"/>
					<path id="&lt;Path&gt;" class="s108" d="m273.1 259.2l-224.5-129.7c-4.5-2.6-8.7-3.1-12.1-1.8-0.4 0.2-6.8 3.6-7.2 3.8 3.5-1.7 8-1.4 12.9 1.4l224.5 129.7c11.4 6.7 20.7 24.4 20.7 39.7v213c0 9.5-3.6 15.8-9.1 17.6 0.5 0.1 1-0.1 1.8-0.6 0.3-0.1 7.1-4 7.4-4.2 3.9-2.8 6.4-8.4 6.4-16.3v-212.9c0-15.3-9.3-33.1-20.8-39.7z"/>
					<path id="&lt;Path&gt;" class="s109" d="m272.9 259.3l-224.4-129.7c-4.6-2.6-8.8-3.1-12.2-1.8-0.4 0.2-6.6 3.5-7 3.7 3.5-1.7 8-1.4 12.9 1.4l224.5 129.7c11.4 6.7 20.7 24.4 20.7 39.7v213c0 9.5-3.6 15.8-9.1 17.6 0.5 0.1 1-0.1 1.8-0.6 0.3-0.1 6.9-3.9 7.2-4.1 3.9-2.7 6.4-8.4 6.4-16.3v-212.9c0-15.3-9.3-33.1-20.8-39.7z"/>
					<path id="&lt;Path&gt;" class="s110" d="m272.7 259.4l-224.4-129.7c-4.5-2.6-8.7-3.1-12.2-1.8-0.4 0.2-6.4 3.4-6.8 3.6 3.5-1.7 8-1.4 12.9 1.4l224.5 129.7c11.4 6.7 20.7 24.4 20.7 39.7v213c0 9.5-3.6 15.8-9.1 17.6 0.5 0.1 1-0.1 1.8-0.6 0.3-0.1 6.8-3.8 7-4 3.9-2.7 6.4-8.4 6.4-16.3v-212.9c0-15.3-9.3-33.1-20.8-39.7z"/>
					<path id="&lt;Path&gt;" class="s111" d="m272.6 259.5l-224.5-129.7c-4.5-2.6-8.7-3.1-12.1-1.8-0.5 0.2-6.3 3.3-6.7 3.5 3.5-1.7 8-1.4 12.9 1.4l224.5 129.7c11.4 6.7 20.7 24.4 20.7 39.7v213c0 9.5-3.6 15.8-9.1 17.6 0.5 0.1 1-0.1 1.8-0.6 0.3-0.1 6.6-3.7 6.8-3.8 4-2.8 6.4-8.5 6.4-16.4v-212.9c0-15.3-9.3-33.1-20.7-39.7z"/>
				</g>
				<path id="&lt;Path&gt;" class="s49" d="m267.7 262.1l-224.5-129.7c-4.7-2.7-9-3.1-12.5-1.6 3-0.4 6.4 0.3 10 2.4l224.5 129.7c11.4 6.6 20.7 24.4 20.7 39.7v212.9c0 9-3.2 15.2-8.2 17.3 6.4-1 10.7-7.6 10.7-18v-213c0-15.3-9.3-33-20.7-39.7z"/>
			</g>
		</g>
		<g id="&lt;Group&gt;">
			<g id="&lt;Group&gt;">
				<path id="&lt;Path&gt;" class="s112" d="m109 267.5c0 38.4 27.2 85.3 60.7 104.6 9.1 5.3 18.2 8.1 26.1 8.1 18.9 0 30.7-15.5 30.7-40.5 0-38.3-27.2-85.3-60.7-104.6-9.1-5.2-18.2-8-26.1-8-18.9 0-30.7 15.5-30.7 40.4z"/>
				<path id="&lt;Path&gt;" class="s112" d="m108.7 268.5c0 37.8 26.8 84.1 59.8 103.2 9 5.2 18 7.9 25.8 7.9 18.7 0 30.3-15.3 30.3-39.9 0-37.8-26.9-84.1-59.9-103.2-9-5.2-17.9-7.9-25.8-7.9-18.6 0-30.2 15.2-30.2 39.9z"/>
				<path id="&lt;Path&gt;" class="s112" d="m108.3 269.4c0 37.4 26.5 83 59.1 101.8 8.9 5.2 17.7 7.9 25.5 7.9 18.4 0 29.8-15.1 29.8-39.4 0-37.3-26.5-83-59-101.8-9-5.1-17.8-7.9-25.5-7.9-18.4 0-29.9 15.1-29.9 39.4z"/>
				<path id="&lt;Path&gt;" class="s113" d="m108 270.4c0 36.8 26.1 81.9 58.2 100.4 8.8 5.1 17.5 7.8 25.2 7.8 18.1 0 29.4-14.9 29.4-38.9 0-36.8-26.1-81.9-58.2-100.4-8.8-5.1-17.5-7.8-25.2-7.8-18.1 0-29.4 14.9-29.4 38.9z"/>
				<path id="&lt;Path&gt;" class="s113" d="m107.6 271.3c0 36.4 25.8 80.8 57.5 99.1 8.7 5 17.2 7.7 24.8 7.7 17.9 0 29-14.7 29-38.3 0-36.4-25.7-80.8-57.4-99.1-8.7-5-17.3-7.7-24.8-7.7-17.9 0-29.1 14.7-29.1 38.3z"/>
				<path id="&lt;Path&gt;" class="s113" d="m107.3 272.3c0 35.8 25.4 79.7 56.6 97.7 8.6 4.9 17.1 7.5 24.5 7.5 17.7 0 28.6-14.4 28.6-37.7 0-35.9-25.4-79.7-56.6-97.7-8.6-5-17-7.6-24.5-7.6-17.6 0-28.6 14.5-28.6 37.8z"/>
				<path id="&lt;Path&gt;" class="s113" d="m106.9 273.2c0 35.4 25.1 78.6 55.9 96.4 8.4 4.8 16.8 7.4 24.1 7.4 17.4 0 28.2-14.3 28.2-37.2 0-35.4-25-78.6-55.8-96.4-8.4-4.8-16.8-7.4-24.1-7.4-17.4 0-28.3 14.3-28.3 37.2z"/>
				<path id="&lt;Path&gt;" class="s113" d="m106.6 274.2c0 34.8 24.7 77.4 55.1 95 8.3 4.8 16.5 7.3 23.7 7.3 17.2 0 27.9-14.1 27.9-36.7 0-34.9-24.7-77.5-55.1-95-8.3-4.8-16.5-7.3-23.8-7.3-17.1 0-27.8 14-27.8 36.7z"/>
				<path id="&lt;Path&gt;" class="s113" d="m106.3 275.1c0 34.4 24.3 76.4 54.2 93.6 8.2 4.8 16.3 7.3 23.4 7.3 17 0 27.5-13.9 27.5-36.2 0-34.3-24.4-76.3-54.3-93.6-8.2-4.7-16.3-7.2-23.4-7.2-16.9 0-27.4 13.8-27.4 36.1z"/>
				<path id="&lt;Path&gt;" class="s114" d="m105.9 276.1c0 33.8 24 75.2 53.5 92.2 8 4.7 16 7.1 23 7.1 16.7 0 27.1-13.6 27.1-35.6 0-33.8-24-75.2-53.5-92.2-8.1-4.7-16-7.1-23.1-7.1-16.6 0-27 13.6-27 35.6z"/>
				<path id="&lt;Path&gt;" class="s114" d="m105.6 277.1c0 33.3 23.6 74 52.6 90.8 8 4.6 15.8 7 22.8 7 16.4 0 26.6-13.4 26.6-35.1 0-33.3-23.6-74.1-52.7-90.8-7.9-4.6-15.8-7.1-22.7-7.1-16.4 0-26.6 13.5-26.6 35.2z"/>
				<path id="&lt;Path&gt;" class="s114" d="m105.2 278c0 32.8 23.3 73 51.9 89.5 7.8 4.5 15.6 6.9 22.4 6.9 16.2 0 26.2-13.3 26.2-34.6 0-32.8-23.3-72.9-51.9-89.5-7.8-4.5-15.5-6.9-22.4-6.9-16.1 0-26.2 13.3-26.2 34.6z"/>
			</g>
			<path id="&lt;Compound Path&gt;" class="s115" d="m141.8 339.5q0.3 0 0.6 0l35.3-7.5c0.2-0.1 1.1-1 1.3-1 2.3-1.1 2.2-5.5-0.5-9.1l-36.1-50.1c-1.6-2.2-3.5-3.3-5-3.3-0.3 0-3.1 1.6-3.3 1.6-1.2 0.3 2.5-1.1 2.5 0.8l-1.9 59.5c0 4.3 3.9 9.1 7.1 9.1z"/>
			<path id="&lt;Compound Path&gt;" fill-rule="evenodd" class="s115" d="m151.5 369.5c-28.8-16.5-52.1-56.9-52.1-89.8 0-23.6 12.1-38.9 30.9-38.9 7.6 0 15.8 2.5 24.2 7.4 28.8 16.5 52.2 56.9 52.2 89.8 0 23.6-12.2 38.9-31 38.9-7.6 0-15.8-2.5-24.2-7.4zm-46-89.8c0 31 22 68.9 49 84.5 7.4 4.3 14.8 6.5 21.2 6.5 15.3 0 24.8-12.5 24.8-32.7 0-31-22-68.9-49-84.5-7.4-4.3-14.8-6.5-21.2-6.5-15.3 0-24.8 12.5-24.8 32.7z"/>
			<path id="&lt;Compound Path&gt;" class="s49" d="m140.7 340.4q0.4 0 0.7-0.1l36.1-8.3c2.8-0.7 2.8-5.4 0-9.3l-36.1-50c-1.6-2.3-3.5-3.4-5.1-3.4-1.5 0-2.7 1.2-2.7 3.5v58.4c0 4.3 4 9.2 7.1 9.2z"/>
			<path id="&lt;Compound Path&gt;" class="s116" d="m140.2 340.8q0.3 0 0.6-0.1l36.1-8.4c2.8-0.6 2.8-5.3 0-9.2l-36.1-50c-1.6-2.3-3.5-3.4-5-3.4-1.6 0-2.7 1.2-2.7 3.5v58.4c0 4.3 3.9 9.2 7.1 9.2z"/>
			<path id="&lt;Compound Path&gt;" fill-rule="evenodd" class="s49" d="m150.5 370.5c-28.7-16.6-52.1-57-52.1-89.9 0-23.6 12.2-38.9 31-38.9 7.6 0 15.8 2.5 24.2 7.4 28.7 16.6 52.1 56.9 52.1 89.9 0 23.6-12.1 38.8-30.9 38.8-7.7 0-15.8-2.5-24.3-7.3zm-45.9-89.9c0 31 22 68.9 49 84.5 7.4 4.3 14.7 6.5 21.2 6.5 15.2 0 24.7-12.5 24.7-32.6 0-31.1-21.9-69-49-84.6-7.4-4.3-14.7-6.5-21.1-6.5-15.3 0-24.8 12.5-24.8 32.7z"/>
			<path id="&lt;Compound Path&gt;" fill-rule="evenodd" class="s117" d="m149.8 370.8c-28.8-16.5-52.2-56.9-52.2-89.8 0-23.6 12.2-38.9 31-38.9 7.6 0 15.8 2.5 24.2 7.4 28.8 16.5 52.1 56.9 52.1 89.8 0 23.6-12.1 38.9-30.9 38.9-7.6 0-15.8-2.5-24.2-7.4zm-46-89.8c0 31 22 68.9 49 84.5 7.4 4.3 14.8 6.5 21.2 6.5 15.3 0 24.8-12.5 24.8-32.7 0-31-22-68.9-49-84.5-7.4-4.3-14.8-6.5-21.2-6.5-15.3 0-24.8 12.5-24.8 32.7z"/>
			<path id="&lt;Path&gt;" class="s118" d="m162.1 299.2c8.8 12.2 15 22.7 13.9 23.5-1.1 0.8-9.1-8.5-17.8-20.7-8.8-12.1-14.9-22.7-13.9-23.5 1.1-0.7 9.1 8.5 17.8 20.7z"/>
		</g>
		<g id="&lt;Group&gt;">
			<path id="&lt;Path&gt;" class="s24" d="m31.7 334.7l245.2 141.7v-10.6l-245.2-141.8z"/>
			<path id="&lt;Path&gt;" class="s49" d="m190.8 416l-159.1-92v10.7l159.1 91.9z"/>
			<path id="&lt;Path&gt;" class="s49" d="m199.6 426.7c0 6.3-4.7 8.8-10.4 5.7-5.8-3.2-10.4-10.9-10.4-17.2 0-6.3 4.6-8.8 10.4-5.6 5.7 3.1 10.4 10.8 10.4 17.1z"/>
			<path id="&lt;Compound Path&gt;" fill-rule="evenodd" class="s24" d="m236.7 476.7l1.8 2.3c0.2 0.3 0.3 0.8 0.2 1q-0.2 0.8-0.6 1.4c-0.1 0.2-0.4 0.2-0.7-0.1l-2-1.7q-0.7 0.6-1.6 0.9l0.5 2.6c0 0.4-0.1 0.7-0.4 0.7q-0.7 0-1.5-0.2c-0.2 0-0.6-0.4-0.7-0.8l-1.1-2.6q-0.6-0.2-1.1-0.6-0.6-0.3-1.1-0.7l-1.1 1.4c-0.2 0.2-0.5 0.2-0.8-0.1q-0.8-0.7-1.5-1.6c-0.2-0.3-0.4-0.7-0.3-1l0.5-2.1q-0.9-1.3-1.6-2.7l-2-0.6c-0.3-0.1-0.6-0.4-0.8-0.8q-0.3-1-0.6-2.1c-0.1-0.4 0-0.6 0.3-0.7l1.8-0.2q-0.1-0.7-0.1-1.3 0-0.7 0.1-1.3l-1.8-2.2c-0.3-0.4-0.4-0.8-0.3-1.1q0.3-0.7 0.6-1.3c0.2-0.3 0.5-0.2 0.8 0l2 1.8q0.7-0.7 1.6-0.9l-0.5-2.7c-0.1-0.3 0.1-0.6 0.3-0.6q0.7 0 1.5 0.1c0.3 0.1 0.6 0.4 0.8 0.8l1.1 2.7q0.5 0.2 1.1 0.5 0.5 0.4 1.1 0.8l1.1-1.4c0.1-0.3 0.5-0.2 0.7 0.1q0.8 0.7 1.5 1.5c0.3 0.3 0.4 0.8 0.4 1.1l-0.5 2q0.9 1.3 1.6 2.7l2 0.7c0.3 0 0.6 0.4 0.7 0.8q0.4 1 0.6 2c0.1 0.4 0 0.7-0.2 0.7l-1.8 0.2q0.1 0.7 0.1 1.4 0 0.6-0.1 1.2zm-4.3-3.7c0-1.9-1.3-4.1-2.9-5.1-1.6-0.9-2.9-0.2-2.9 1.7 0 1.8 1.3 4.1 2.9 5 1.6 1 2.9 0.2 2.9-1.6z"/>
			<path id="&lt;Path&gt;" class="s24" d="m58.2 371.4l-10.7-14.9c-1-1.3-2.3-1.3-2.3 0.1v17.3c0 1.4 1.3 2.9 2.3 2.7l10.7-2.5c0.9-0.2 0.9-1.6 0-2.7z"/>
			<path id="&lt;Path&gt;" class="s24" d="m85.1 387.7l-8.6-11.8c-0.7-1.1-1.8-1-1.8 0v13.8c0 1.1 1.1 2.3 1.8 2.2l8.6-2c0.6-0.2 0.6-1.3 0-2.2z"/>
			<path id="&lt;Path&gt;" class="s24" d="m88.9 399.2l-1.6-0.9c-0.6-0.3-1.1-1.3-1.1-2v-13.6c0-0.8 0.5-1.2 1.1-0.8l1.6 0.9c0.6 0.3 1.1 1.3 1.1 2.1v13.5c0 0.8-0.5 1.2-1.1 0.8z"/>
			<path id="&lt;Compound Path&gt;" class="s24" d="m116 396.6l-6.5 1.5-6.4-3.8v9.7l6.4 3.8 6.5 8.9c0.9 1.3 2.3 1.3 2.3-0.1v-17.3c0-1.4-1.4-2.9-2.3-2.7zm3.6 8.9v6.4c1.5 0.9 2.8 0.2 2.8-1.6 0-1.7-1.3-3.9-2.8-4.8z"/>
			<g id="&lt;Group&gt;">
				<path id="&lt;Path&gt;" class="s24" d="m260.2 480.9l5.2 3v6l2.2 1.2v-8.5l-7.4-4.2z"/>
				<path id="&lt;Path&gt;" class="s24" d="m252.4 482.3v-6l5.2 3.1v-2.5l-7.4-4.3v8.5z"/>
				<path id="&lt;Path&gt;" class="s24" d="m265.4 492.9v6l-5.2-3v2.5l7.4 4.2v-8.5z"/>
				<path id="&lt;Path&gt;" class="s24" d="m257.6 494.4l-5.2-3.1v-6l-2.2-1.2v8.5l7.4 4.3z"/>
			</g>
		</g>
		<g id="&lt;Group&gt;" style="mix-blend-mode: multiply">
			<path id="&lt;Compound Path&gt;" fill-rule="evenodd" class="s119" d="m350.8 164.7q-1.6-2.9-1.6-6.4v-15.6q0-3.6 1.6-4.6 1.6-1.1 4.6 0.7 3 1.7 4.6 4.5 1.5 2.9 1.5 6.5v15.6q0 3.6-1.5 4.6-1.6 1-4.6-0.7-3-1.7-4.6-4.6zm6.7-1.4v-16.2q0-2.9-2.1-4.1-2.1-1.2-2.1 1.7v16.2q0 2.9 2.1 4.2 2.1 1.2 2.1-1.8z"/>
			<path id="&lt;Compound Path&gt;" fill-rule="evenodd" class="s119" d="m365.6 173.2q-1.6-2.8-1.6-6.4v-15.6q0-3.6 1.6-4.6 1.6-1 4.6 0.7 3 1.7 4.5 4.6 1.6 2.9 1.6 6.4v15.6q0 3.6-1.6 4.6-1.5 1.1-4.5-0.7-3-1.7-4.6-4.6zm6.7-1.3v-16.2q0-3-2.1-4.2-2.1-1.2-2.1 1.7v16.2q0 3 2.1 4.2 2.1 1.2 2.1-1.7z"/>
			<path id="&lt;Compound Path&gt;" class="s119" d="m380.4 183.3l-1.3-0.7v-4.5l3.9 2.2v4.1l-2.3 4.2-1.8-1.1zm-1.4-21.4l3.9 2.3v4.4l-3.9-2.2z"/>
			<path id="&lt;Compound Path&gt;" fill-rule="evenodd" class="s119" d="m387.3 185.8q-1.6-2.9-1.6-6.4v-15.7q0-3.5 1.6-4.6 1.6-1 4.6 0.7 3 1.8 4.6 4.6 1.6 2.9 1.6 6.5v15.6q0 3.5-1.6 4.6-1.6 1-4.6-0.7-3-1.7-4.6-4.6zm6.7-1.4v-16.2q0-2.9-2.1-4.1-2.1-1.2-2.1 1.7v16.2q0 2.9 2.1 4.1 2.1 1.3 2.1-1.7z"/>
			<path id="&lt;Compound Path&gt;" fill-rule="evenodd" class="s119" d="m402.1 194.3q-1.6-2.8-1.6-6.4v-15.6q0-3.6 1.6-4.6 1.6-1.1 4.6 0.7 3 1.7 4.6 4.6 1.6 2.8 1.6 6.4v15.6q0 3.6-1.6 4.6-1.6 1.1-4.6-0.7-3-1.7-4.6-4.6zm6.7-1.3v-16.2q0-3-2.1-4.2-2.1-1.2-2.1 1.7v16.2q0 3 2.1 4.2 2.1 1.2 2.1-1.7z"/>
			<path id="&lt;Compound Path&gt;" class="s119" d="m416.9 204.4l-1.3-0.8v-4.5l3.9 2.3v4l-2.2 4.3-1.9-1.1zm-1.4-21.4l4 2.2v4.5l-4-2.2z"/>
			<path id="&lt;Compound Path&gt;" class="s119" d="m428.2 188.3l-4.2-2.5v-3.3q1.7 1 2.8 1.3 1 0.3 1.7-0.2 0.6-0.4 1.1-1.6l2.7 1.6v29.7l-4.1-2.4z"/>
			<path id="&lt;Compound Path&gt;" fill-rule="evenodd" class="s119" d="m444.1 214.7l-7.7-4.4v-4.3l7.4-15.8 4.4 2.6v20l1.9 1.1v4.3l-1.9-1.1v5.4l-4.1-2.4zm0-4.2v-11.6l-4 9.2z"/>
			<path id="&lt;Compound Path&gt;" class="s119" d="m453.5 225.5l-1.4-0.8v-4.5l3.9 2.3v4l-2.2 4.3-1.9-1.1zm-1.3-21.4l3.9 2.2v4.5l-3.9-2.2z"/>
			<path id="&lt;Compound Path&gt;" fill-rule="evenodd" class="s119" d="m465.9 227.3l-7.8-4.5v-4.2l7.4-15.8 4.4 2.5v20.1l2 1.1v4.2l-2-1.1v5.4l-4-2.3zm0-4.3v-11.6h-0.1l-4 9.3z"/>
			<path id="&lt;Compound Path&gt;" fill-rule="evenodd" class="s119" d="m475.3 236.6q-1.6-2.9-1.6-6.5v-15.3q0-7.7 6.2-4.2 3 1.7 4.5 4.6 1.6 2.8 1.6 6.4v0.6l-3.9-2.3v-0.8q0-2.9-2.1-4.2-1.1-0.6-1.7-0.1-0.5 0.5-0.5 2.5v5.7q1.1-1.9 3.7-0.4 2.2 1.2 3.4 3.7 1.1 2.4 1.1 5.7v5.3q0 3.5-1.6 4.6-1.5 1-4.5-0.7-3-1.8-4.6-4.6zm6.7-1.3v-5.3q0-2.9-2.1-4.1-2.2-1.3-2.1 1.7v5.2q-0.1 2.9 2.1 4.1 2.1 1.2 2.1-1.6z"/>
		</g>
		<path id="&lt;Compound Path&gt;" class="s120" d="m563.3 266.2l29 16.7c1.1 0.6 2 0.1 2-1.1 0-1.3-0.9-2.9-2-3.5l-29-16.7c-1.1-0.6-1.9-0.1-1.9 1.1 0 1.3 0.8 2.8 1.9 3.5zm29 22.4l-29-16.7c-1.1-0.6-1.9-0.1-1.9 1.1 0 1.3 0.8 2.8 1.9 3.5l29 16.7c1.1 0.6 2 0.1 2-1.1 0-1.3-0.9-2.8-2-3.5zm0 10.3l-29-16.7c-1.1-0.6-1.9-0.1-1.9 1.2 0 1.2 0.8 2.8 1.9 3.4l29 16.7c1.1 0.7 2 0.1 2-1.1 0-1.3-0.9-2.8-2-3.5z"/>
		<g id="&lt;Group&gt;" style="mix-blend-mode: multiply">
			<g id="&lt;Group&gt;">
				<path id="&lt;Path&gt;" class="s119" d="m447.9 379.5l-8.5-11.8c-0.8-1-1.9-1-1.9 0v13.8c0 1.1 1.1 2.3 1.9 2.2l8.5-2c0.6-0.2 0.6-1.3 0-2.2z"/>
				<path id="&lt;Path&gt;" class="s119" d="m434.9 381.4l-1.6-0.9c-0.6-0.3-1.1-1.3-1.1-2.1v-13.5c0-0.8 0.5-1.2 1.1-0.8l1.6 0.9c0.6 0.3 1 1.3 1 2.1v13.5c0 0.8-0.4 1.2-1 0.8z"/>
			</g>
			<path id="&lt;Path&gt;" class="s119" d="m417.6 371.3l-10-5.9c-0.5-0.4-1-1.3-1-2.1v-13.5c0-0.8 0.5-1.2 1-0.9l10 6c0.5 0.3 1 1.3 1 2.1v13.5c0 0.8-0.5 1.2-1 0.8z"/>
			<g id="&lt;Group&gt;">
				<path id="&lt;Path&gt;" class="s119" d="m379.1 341.9l8.5 11.8c0.8 1 1.8 1 1.8-0.1v-13.7c0-1.1-1-2.4-1.8-2.2l-8.5 2c-0.7 0.1-0.7 1.3 0 2.2z"/>
				<path id="&lt;Path&gt;" class="s119" d="m392.1 340l1.6 0.9c0.6 0.3 1.1 1.2 1.1 2v13.6c0 0.8-0.5 1.2-1.1 0.8l-1.6-0.9c-0.6-0.4-1.1-1.3-1.1-2.1v-13.5c0-0.8 0.5-1.2 1.1-0.8z"/>
			</g>
			<path id="&lt;Compound Path&gt;" fill-rule="evenodd" class="s119" d="m495.1 401.5l1.8 1c0.5 0.3 0.8 0.9 0.8 1.4v11.3c0 0.5-0.3 0.7-0.8 0.4l-17.3-10c-0.5-0.3-0.8-0.9-0.8-1.4v-11.2c0-0.5 0.3-0.7 0.8-0.5l6.7 3.9c0.3 0.2 0.6 0.1 0.7-0.1l0.5-0.9c0.1-0.2 0.4-0.3 0.7-0.1l5 2.9c0.3 0.2 0.6 0.6 0.7 1l0.5 1.3c0.1 0.4 0.4 0.8 0.7 1zm-0.7 6.2c0-2.4-1.7-5.2-3.7-6.4-2-1.2-3.7-0.2-3.7 2.1 0 2.4 1.7 5.2 3.7 6.4 2 1.2 3.7 0.2 3.7-2.1zm-11.8-10.2c0-0.6-0.4-1.3-1-1.7-0.5-0.3-1 0-1 0.6 0 0.6 0.5 1.4 1 1.7 0.6 0.3 1 0.1 1-0.6zm5.5 0l5.2 2.9-0.3-1-4.5-2.6zm5.3 9.7c0 1.7-1.3 2.4-2.8 1.6-1.5-0.9-2.7-3-2.7-4.7 0-1.8 1.2-2.5 2.7-1.6 1.5 0.9 2.8 3 2.8 4.7z"/>
			<path id="&lt;Compound Path&gt;" class="s119" d="m361.8 339q-0.6-1-0.6-2.2v-4.2q0-0.8-0.3-1.2-0.2-0.4-0.9-0.8v-2.1q0.7 0.5 0.9 0.3 0.3-0.1 0.3-0.9v-4.1q0-1.3 0.6-1.6 0.6-0.2 1.6 0.3l1.1 0.7v2l-0.3-0.2q-0.6-0.3-0.8-0.1-0.3 0.2-0.3 1.1v3.4q0 1.5-1.2 1.3 1.2 1.1 1.2 2.7v3.3q0 0.9 0.3 1.4 0.2 0.5 0.8 0.8l0.3 0.2v2l-1.1-0.6q-1-0.6-1.6-1.5z"/>
			<path id="&lt;Compound Path&gt;" class="s119" d="m463.1 396.2l0.4 0.2q0.5 0.3 0.7 0.1 0.3-0.2 0.3-1.1v-3.4q0-1.6 1.2-1.3v-0.1q-1.2-1-1.2-2.6v-3.4q0-0.9-0.3-1.4-0.2-0.5-0.7-0.8l-0.4-0.2v-2l1.1 0.6q1 0.6 1.6 1.6 0.6 1 0.6 2.2v4.1q0 0.8 0.3 1.2 0.2 0.5 1 0.9v2q-0.8-0.4-1-0.3-0.3 0.2-0.3 1v4.1q0 1.2-0.6 1.5-0.6 0.3-1.6-0.3l-1.1-0.6z"/>
			<path id="&lt;Path&gt;" class="s119" d="m595.4 462.6l-5.1-3v-5.7l-3.7-2.2v5.8l-5.1-2.9v4.3l5.1 2.9v5.8l3.7 2.2v-5.8l5.1 2.9z"/>
			<path id="&lt;Path&gt;" class="s119" d="m463.2 389.3l-3.6-5.1c-0.4-0.4-0.8-0.4-0.8 0.1v5.8c0 0.5 0.4 1 0.8 0.9l3.6-0.8c0.3-0.1 0.3-0.6 0-0.9z"/>
			<path id="&lt;Path&gt;" class="s119" d="m364.5 332.1l3.6 5c0.4 0.5 0.8 0.5 0.8 0v-5.8c0-0.5-0.4-1-0.8-0.9l-3.6 0.8c-0.3 0.1-0.3 0.5 0 0.9z"/>
			<g id="&lt;Group&gt;">
				<path id="&lt;Path&gt;" class="s119" d="m325.4 313.8l-4.4 3.2-4.8-8.5v-11.8l9.2 5.3z"/>
			</g>
			<path id="&lt;Path&gt;" class="s119" d="m340.8 318.1v9.8l5.1 2.9v-9.7l3.7 2.1-6.3-12.9-6.2 5.7z"/>
		</g>
	</g>
</svg>